<?xml version="1.0" encoding="iso-8859-1"?>
<!-- Generator: Adobe Illustrator 24.3.0, SVG Export Plug-In . SVG Version: 6.00 Build 0)  -->
<svg version="1.1" id="Layer_1" xmlns="http://www.w3.org/2000/svg" xmlns:xlink="http://www.w3.org/1999/xlink" x="0px" y="0px"
	 viewBox="0 0 156.485 137.037" style="enable-background:new 0 0 156.485 137.037;" xml:space="preserve">
<path style="fill:#D21736;" d="M122.728,90.075l1.757-1.712c1.498-1.481,1.533-3.892,0.069-5.407l-15.447-15.895
	c-1.481-1.515-3.909-1.55-5.442-0.069L87.77,82.457c-1.515,1.464-1.55,3.892-0.069,5.407l2.066,2.118
	c1.515,1.567,1.481,4.081-0.086,5.597l-0.946,0.919c-1.535,1.492-3.978,1.492-5.513-0.001l-2.272-2.21
	c-1.515-1.464-3.944-1.429-5.407,0.086l-2.084,2.118c-1.515,1.567-4.012,1.602-5.58,0.086l-1.515-1.473
	c-1.595-1.552-1.596-4.113-0.002-5.666l1.792-1.746c1.515-1.464,1.55-3.909,0.069-5.425L52.778,66.372
	c-1.464-1.498-3.892-1.533-5.407-0.069L31.458,81.785c-1.515,1.464-1.55,3.892-0.069,5.407l2.067,2.118
	c1.515,1.567,9.816,10.091,11.331,11.641l2.067,2.135c1.466,1.515,3.885,1.551,5.396,0.08l2.466-2.401
	c1.537-1.497,3.988-1.494,5.522,0.005l1.822,1.781c1.567,1.515,1.602,4.03,0.086,5.597l-2.067,2.118
	c-1.481,1.515-1.446,3.944,0.069,5.407l15.912,15.482c1.515,1.464,3.926,1.429,5.407-0.086l15.447-15.878
	c1.481-1.515,1.447-3.961-0.069-5.442l-1.972-1.916c-1.598-1.553-1.598-4.12,0.001-5.673l0.627-0.609
	c1.567-1.515,4.064-1.481,5.58,0.086l2.084,2.118c1.464,1.515,3.892,1.55,5.407,0.069 M57.995,87.554l-5.597,5.459
	c-1.515,1.464-3.961,1.447-5.425-0.069l-5.442-5.597c-1.481-1.533-1.429-3.944,0.086-5.425l5.597-5.459
	c1.515-1.464,3.926-1.429,5.407,0.086l5.459,5.597C59.545,83.662,59.528,86.073,57.995,87.554z M86.771,115.314l-5.459,5.597
	c-1.481,1.515-3.892,1.55-5.407,0.069l-5.597-5.442c-1.533-1.481-1.567-3.909-0.086-5.425l5.442-5.597
	c1.464-1.515,3.909-1.55,5.425-0.069l1.653,1.619l0.138,0.121l3.806,3.72c0.034,0.034,0.069,0.069,0.103,0.103
	C88.201,111.474,88.201,113.833,86.771,115.314z M108.711,93.685c-1.515,1.481-3.944,1.447-5.425-0.069l-5.442-5.597
	c-1.481-1.515-1.446-3.944,0.086-5.425l5.597-5.459c1.515-1.464,3.944-1.429,5.407,0.086l5.459,5.597
	c1.464,1.515,1.429,3.926-0.086,5.407L108.711,93.685z"/>
<path d="M91.266,45.105l-3.806-3.72l3.806,3.926l0.103-0.103C91.334,45.174,91.3,45.14,91.266,45.105z"/>
<path style="fill:#fff;" d="M153.013,55.431l-15.895-15.464c-1.515-1.481-3.926-1.446-5.407,0.069l-2.067,2.135
	c-1.533,1.55-4.03,1.584-5.597,0.069l-0.842-0.819c-1.596-1.552-1.597-4.114-0.002-5.667l1.757-1.712
	c1.498-1.481,1.533-3.892,0.069-5.407L109.582,12.74c-1.481-1.515-3.909-1.55-5.442-0.069L88.245,28.136
	c-1.515,1.464-1.55,3.892-0.069,5.407l2.066,2.118c1.515,1.567,1.481,4.081-0.086,5.597l-0.946,0.919
	c-1.535,1.492-3.978,1.492-5.513-0.001l-2.272-2.21c-1.515-1.464-3.944-1.429-5.407,0.086l-2.084,2.118
	c-1.515,1.567-4.013,1.602-5.58,0.086l-1.515-1.473c-1.231-1.198-1.502-2.993-0.833-4.466l3.01-2.928
	c1.52-1.478,1.553-3.91,0.075-5.43L53.594,12.024c-0.946-0.973-2.282-1.329-3.521-1.077c-0.81,0.093-1.598,0.428-2.228,1.036
	L31.933,27.464c-1.515,1.464-1.55,3.892-0.069,5.407l2.067,2.118c0.464,0.479,1.565,1.613,2.91,2.995l-7.183,6.986l-4.832-4.968
	c-1.478-1.52-3.91-1.554-5.43-0.075L3.46,55.427c-1.52,1.478-1.553,3.91-0.075,5.43l15.499,15.936c1.478,1.52,3.91,1.554,5.43,0.076
	L40.25,61.369c1.52-1.478,1.554-3.91,0.075-5.43l-4.832-4.968l7.186-6.989c1.192,1.223,2.158,2.214,2.583,2.648l2.067,2.135
	c0.62,0.64,1.411,1,2.23,1.11c1.224,0.276,2.557-0.048,3.523-0.987l3.347-3.255c1.422-0.592,3.117-0.323,4.283,0.818l1.822,1.781
	c1.567,1.515,1.602,4.03,0.086,5.597l-2.067,2.118c-1.481,1.515-1.446,3.944,0.069,5.407l15.912,15.482
	c1.515,1.464,3.926,1.429,5.407-0.086L97.39,60.873c1.481-1.515,1.447-3.961-0.069-5.442l-1.972-1.916
	c-1.598-1.553-1.598-4.12,0.001-5.672l0.627-0.609c1.567-1.515,4.064-1.481,5.58,0.086l2.084,2.118
	c1.464,1.515,3.892,1.55,5.407,0.069l2.5-2.434c1.533-1.493,3.975-1.495,5.511-0.006l1.176,1.14c1.568,1.52,1.603,4.043,0.078,5.606
	l-2.066,2.118c-1.464,1.515-1.429,3.944,0.069,5.407l15.912,15.482c1.515,1.464,3.944,1.429,5.407-0.069l15.464-15.895
	C154.58,59.34,154.546,56.895,153.013,55.431z M30.069,61.228l-5.62,5.466c-1.52,1.478-3.952,1.444-5.43-0.075l-5.459-5.613
	c-1.478-1.52-1.444-3.952,0.075-5.43l5.62-5.466c1.455-1.415,3.74-1.447,5.235-0.111l0.056,0.057
	c0.049,0.036,0.098,0.086,0.14,0.129l5.459,5.613c0.049,0.05,0.098,0.1,0.132,0.15l0.049,0.05
	C31.619,57.53,31.524,59.813,30.069,61.228z M53.098,22.229l5.459,5.597c1.464,1.515,1.446,3.926-0.086,5.407l-5.597,5.459
	c-0.742,0.717-1.708,1.074-2.672,1.078c-0.885-0.078-1.748-0.444-2.416-1.131l-5.459-5.613c-1.478-1.52-1.444-3.952,0.075-5.43
	l5.62-5.466c0.674-0.656,1.53-0.997,2.4-1.059C51.395,21.09,52.361,21.475,53.098,22.229z M87.247,60.993l-5.459,5.597
	c-1.481,1.516-3.892,1.55-5.407,0.069l-5.597-5.442c-1.533-1.481-1.567-3.909-0.086-5.425l5.442-5.597
	c1.464-1.515,3.909-1.55,5.425-0.069l1.653,1.619l0.138,0.121l3.806,3.72c0.034,0.034,0.069,0.069,0.103,0.103
	C88.676,57.153,88.676,59.512,87.247,60.993z M114.783,33.905l-5.597,5.459c-1.515,1.481-3.944,1.447-5.424-0.069l-5.442-5.597
	c-1.481-1.515-1.447-3.944,0.086-5.425l5.597-5.459c1.515-1.464,3.944-1.429,5.407,0.086l5.459,5.597
	C116.333,30.013,116.298,32.424,114.783,33.905z M142.939,60.976l-5.459,5.597c-1.464,1.515-3.875,1.55-5.39,0.086l-5.614-5.459
	c-1.515-1.481-1.567-3.892-0.086-5.425l5.459-5.597c1.464-1.515,3.892-1.533,5.407-0.069l5.614,5.459
	C144.385,57.05,144.403,59.461,142.939,60.976z"/>
</svg>
