<?xml version="1.0" encoding="iso-8859-1"?>
<!-- Generator: Adobe Illustrator 24.3.0, SVG Export Plug-In . SVG Version: 6.00 Build 0)  -->
<svg version="1.1" id="Layer_1" xmlns="http://www.w3.org/2000/svg" xmlns:xlink="http://www.w3.org/1999/xlink" x="0px" y="0px"
	 viewBox="0 0 162.178 145.607" style="enable-background:new 0 0 162.178 145.607;" xml:space="preserve">
<g>
	<path style="fill:#fff;" d="M157.55,63.029l-15.895-15.464c-1.515-1.481-3.926-1.446-5.407,0.069l-2.067,2.135
		c-1.533,1.55-4.03,1.584-5.597,0.069l-0.842-0.819c-1.596-1.552-1.597-4.114-0.002-5.667l1.757-1.712
		c1.498-1.481,1.533-3.892,0.069-5.407l-15.447-15.895c-1.481-1.515-3.909-1.55-5.442-0.069L92.783,35.734
		c-1.515,1.464-1.55,3.892-0.069,5.407l2.066,2.118c1.515,1.567,1.481,4.081-0.086,5.597l-0.946,0.919
		c-1.535,1.492-3.978,1.492-5.513-0.001l-2.272-2.21c-1.515-1.464-3.944-1.429-5.407,0.086l-2.084,2.118
		c-1.515,1.567-4.012,1.602-5.58,0.086l-1.515-1.473c-1.595-1.552-1.596-4.113-0.002-5.666l1.792-1.746
		c1.515-1.464,1.55-3.909,0.069-5.425L57.79,19.65c-1.464-1.498-3.892-1.533-5.407-0.069L36.471,35.063
		c-1.515,1.464-1.55,3.892-0.069,5.407l2.067,2.118c1.515,1.567,1.481,4.081-0.086,5.597l-4.805,4.684
		c-1.567,1.515-4.064,1.481-5.597-0.086l-2.067-2.118c-1.464-1.515-3.892-1.55-5.407-0.086L4.612,66.043
		c-1.515,1.481-1.55,3.892-0.069,5.407l15.464,15.912c1.464,1.498,3.892,1.533,5.407,0.069L41.31,71.967
		c1.515-1.481,1.55-3.892,0.069-5.407l-2.067-2.135c-1.515-1.567-1.481-4.064,0.086-5.58l4.805-4.684
		c1.55-1.515,4.081-1.481,5.597,0.069l2.067,2.135c1.466,1.515,3.885,1.551,5.396,0.08l2.466-2.401
		c1.537-1.497,3.988-1.494,5.522,0.005l1.822,1.781c1.567,1.515,1.602,4.03,0.086,5.597l-2.067,2.118
		c-1.481,1.515-1.446,3.944,0.069,5.407l15.912,15.482c1.515,1.464,3.926,1.429,5.407-0.086l15.447-15.878
		c1.481-1.515,1.447-3.961-0.069-5.442l-1.972-1.916c-1.598-1.553-1.598-4.12,0.001-5.672l0.627-0.609
		c1.567-1.515,4.064-1.481,5.58,0.086l2.084,2.118c1.464,1.515,3.892,1.55,5.407,0.069l2.5-2.434
		c1.533-1.493,3.975-1.495,5.511-0.006l1.176,1.14c1.568,1.52,1.603,4.043,0.078,5.606l-2.067,2.118
		c-1.464,1.515-1.429,3.944,0.069,5.407l15.912,15.482c1.515,1.464,3.944,1.429,5.407-0.069l15.464-15.895
		C159.118,66.939,159.083,64.493,157.55,63.029z M31.149,71.829l-5.614,5.459c-1.498,1.464-3.944,1.429-5.407-0.069l-5.442-5.614
		c-1.481-1.515-1.447-3.944,0.069-5.407l5.614-5.459c1.515-1.481,3.926-1.447,5.407,0.069l5.459,5.614
		C32.699,67.92,32.665,70.348,31.149,71.829z M63.008,40.832l-5.597,5.459c-1.515,1.464-3.961,1.447-5.425-0.069l-5.442-5.597
		c-1.481-1.533-1.429-3.944,0.086-5.425l5.597-5.459c1.515-1.464,3.926-1.429,5.407,0.086l5.459,5.597
		C64.558,36.94,64.541,39.351,63.008,40.832z M91.784,68.592l-5.459,5.597c-1.481,1.515-3.892,1.55-5.407,0.069l-5.597-5.442
		c-1.533-1.481-1.567-3.909-0.086-5.425l5.442-5.597c1.464-1.515,3.909-1.55,5.425-0.069l1.653,1.619l0.138,0.121l3.806,3.72
		c0.034,0.034,0.069,0.069,0.103,0.103C93.213,64.752,93.213,67.111,91.784,68.592z M113.723,46.962
		c-1.515,1.481-3.944,1.447-5.425-0.069l-5.442-5.597c-1.481-1.515-1.446-3.944,0.086-5.425l5.597-5.459
		c1.515-1.464,3.944-1.429,5.407,0.086l5.459,5.597c1.464,1.515,1.429,3.926-0.086,5.407L113.723,46.962z M147.476,68.575
		l-5.459,5.597c-1.464,1.515-3.875,1.55-5.39,0.086l-5.614-5.459c-1.515-1.481-1.567-3.892-0.086-5.425l5.459-5.597
		c1.464-1.515,3.892-1.533,5.407-0.069l5.614,5.459C148.923,64.648,148.94,67.059,147.476,68.575z"/>
	<path style="fill:#D21736;" d="M127.741,91.674l1.757-1.712c1.498-1.481,1.533-3.892,0.069-5.407L114.119,68.66
		c-1.481-1.515-3.909-1.55-5.442-0.069L92.783,84.055c-1.515,1.464-1.55,3.892-0.069,5.407l2.066,2.118
		c1.515,1.567,1.481,4.081-0.086,5.597l-0.946,0.919c-1.535,1.492-3.978,1.492-5.513-0.001l-2.272-2.21
		c-1.515-1.464-3.944-1.429-5.407,0.086l-2.084,2.118c-1.515,1.567-4.012,1.602-5.58,0.086l-1.515-1.473
		c-1.595-1.552-1.596-4.113-0.002-5.666l1.792-1.746c1.515-1.464,1.55-3.909,0.069-5.425L57.79,67.971
		c-1.464-1.498-3.892-1.533-5.407-0.069L36.471,83.384c-1.515,1.464-1.55,3.892-0.069,5.407l2.067,2.118
		c1.515,1.567,9.816,10.091,11.331,11.641l2.067,2.135c1.466,1.515,3.885,1.551,5.396,0.08l2.466-2.401
		c1.537-1.497,3.988-1.494,5.522,0.005l1.822,1.781c1.567,1.515,1.602,4.03,0.086,5.597l-2.067,2.118
		c-1.481,1.515-1.446,3.944,0.069,5.407l15.912,15.482c1.515,1.464,3.926,1.429,5.407-0.086l15.447-15.878
		c1.481-1.515,1.447-3.961-0.069-5.442l-1.972-1.916c-1.598-1.553-1.598-4.12,0.001-5.673l0.627-0.609
		c1.567-1.515,4.064-1.481,5.58,0.086l2.084,2.118c1.464,1.515,3.892,1.55,5.407,0.069 M63.008,89.153l-5.597,5.459
		c-1.515,1.464-3.961,1.447-5.425-0.069l-5.442-5.597c-1.481-1.533-1.429-3.944,0.086-5.425l5.597-5.459
		c1.515-1.464,3.926-1.429,5.407,0.086l5.459,5.597C64.558,85.261,64.541,87.672,63.008,89.153z M91.784,116.913l-5.459,5.597
		c-1.481,1.515-3.892,1.55-5.407,0.069l-5.597-5.442c-1.533-1.481-1.567-3.909-0.086-5.425l5.442-5.597
		c1.464-1.515,3.909-1.55,5.425-0.069l1.653,1.619l0.138,0.121l3.806,3.72c0.034,0.034,0.069,0.069,0.103,0.103
		C93.213,113.073,93.213,115.432,91.784,116.913z M113.723,95.283c-1.515,1.481-3.944,1.447-5.425-0.069l-5.442-5.597
		c-1.481-1.515-1.446-3.944,0.086-5.425l5.597-5.459c1.515-1.464,3.944-1.429,5.407,0.086l5.459,5.597
		c1.464,1.515,1.429,3.926-0.086,5.407L113.723,95.283z"/>
</g>
<path d="M95.803,52.703l-3.806-3.72l3.806,3.926l0.103-0.103C95.872,52.772,95.838,52.738,95.803,52.703z"/>
</svg>
