<?xml version="1.0" encoding="iso-8859-1"?>
<!-- Generator: Adobe Illustrator 24.3.0, SVG Export Plug-In . SVG Version: 6.00 Build 0)  -->
<svg version="1.1" id="Layer_1" xmlns="http://www.w3.org/2000/svg" xmlns:xlink="http://www.w3.org/1999/xlink" x="0px" y="0px"
	 viewBox="0 0 594 167.738" style="enable-background:new 0 0 594 167.738;" xml:space="preserve">
<path style="fill:fff;" d="M-852.677-70.347c-2.163-2.211-2.172-2.385,0.012-4.578c2.52-2.532,5.115-4.993,7.569-7.586
	c1.428-1.509,2.553-1.426,3.94,0.03c2.348,2.465,4.815,4.819,7.219,7.231c2.341,2.35,2.426,2.749,0.069,5.013
	c-1.651,1.586-1.572,2.873-0.053,4.413c1.769,1.793,2.718,1.821,4.553-0.067c2.033-2.092,2.597-2.178,4.629-0.056
	c1.612,1.684,2.878,1.777,4.584,0.072c1.718-1.717,1.665-3.096-0.152-4.528c-1.867-1.47-1.841-2.778-0.068-4.431
	c2.488-2.319,4.811-4.821,7.107-7.333c1.534-1.678,2.885-1.962,4.571-0.189c2.461,2.588,5.006,5.098,7.587,7.567
	c1.638,1.568,1.524,2.914-0.09,4.403c-2.502,2.31-5.045,4.593-7.354,7.086c-1.699,1.834-3.029,2.029-4.594-0.009
	c-1.442-1.878-2.807-1.744-4.527-0.083c-1.741,1.682-1.708,2.834,0.041,4.448c2.38,2.196,2.282,2.733-0.057,4.972
	c-2.46,2.355-5.002,4.631-7.357,7.085c-1.529,1.593-2.662,1.492-4.116-0.064c-2.267-2.427-4.61-4.794-7.063-7.032
	c-1.84-1.678-2.238-3.134-0.195-4.911c1.43-1.244,1.852-2.603,0.338-4.256c-1.86-2.031-2.583-2.14-4.639-0.168
	c-2.236,2.145-2.674,2.207-4.854-0.054C-847.079-64.926-850.569-68.193-852.677-70.347z M-827.158-52.025
	c2.68,0.044,4.593-1.762,4.647-4.387c0.054-2.62-1.799-4.56-4.427-4.635c-2.464-0.071-4.684,1.988-4.758,4.411
	C-831.768-54.23-829.638-52.065-827.158-52.025z M-843.255-68.101c2.304,0.068,4.671-2.236,4.683-4.557
	c0.012-2.439-2.073-4.513-4.601-4.575c-2.537-0.063-4.442,1.689-4.566,4.198C-847.867-70.429-845.82-68.176-843.255-68.101z
	 M-806.281-72.708c0.024-2.561-1.97-4.517-4.612-4.523c-2.632-0.006-4.471,1.902-4.452,4.618c0.017,2.469,1.896,4.39,4.408,4.507
	C-808.642-67.999-806.304-70.31-806.281-72.708z M-859.564-61.054"/>
<path d="M-871.846-20.47c-0.05,0.663-0.438,1.1-0.843,1.52c-2.71,2.808-5.45,5.587-8.126,8.426c-1.38,1.463-2.593,1.47-4,0.017
	c-2.599-2.684-5.259-5.311-7.934-7.922c-1.346-1.314-1.364-2.488,0.003-3.811c2.507-2.425,4.945-4.921,7.42-7.379
	c2.306-2.289,2.514-2.356,4.778-0.044c1.541,1.574,2.779,1.751,4.372,0.076c2.066-2.171,2.139-2.327-0.022-4.566
	c-2.088-2.164-2.094-2.458,0.059-4.622c2.519-2.531,5.094-5.008,7.572-7.578c1.307-1.355,2.423-1.474,3.777-0.071
	c2.595,2.689,5.233,5.338,7.92,7.935c1.554,1.501,1.463,2.723-0.131,4.152c-2.207,1.979-2.137,2.861-0.234,4.89
	c1.409,1.503,2.576,1.373,3.996-0.019c2.611-2.559,2.713-2.563,5.354,0.031c1.448,1.423,2.609,1.418,4.008-0.024
	c1.328-1.369,2.33-2.493,0.518-4.34c-2.738-2.79-2.648-2.88,0.169-5.709c2.227-2.236,4.504-4.425,6.67-6.718
	c1.425-1.51,2.655-1.708,4.178-0.116c2.525,2.64,5.119,5.217,7.763,7.74c1.567,1.495,1.459,2.723-0.073,4.17
	c-2.475,2.338-4.836,4.794-7.251,7.195c-2.333,2.318-2.425,2.374-4.77,0.06c-1.428-1.41-2.595-1.803-4.192-0.205
	c-2.24,2.241-2.408,2.574-0.073,4.714c1.76,1.614,1.797,2.841,0.024,4.466c-2.57,2.355-5.047,4.824-7.409,7.385
	c-1.656,1.795-2.919,1.658-4.504-0.069c-2.245-2.445-4.583-4.818-7.032-7.058c-1.785-1.632-2.07-3.008-0.141-4.686
	c1.477-1.285,2.14-2.695,0.389-4.408c-1.847-1.807-2.622-1.892-4.548-0.092c-2.38,2.224-2.61,2.299-5.029-0.153
	c-1.656-1.678-2.85-1.355-4.382,0.155c-1.593,1.569-1.737,2.849-0.009,4.344C-872.845-22.15-872.021-21.51-871.846-20.47z
	 M-862.045-36.37c0.032-2.467-2.048-4.608-4.531-4.663c-2.661-0.059-4.597,1.787-4.635,4.421c-0.037,2.554,1.905,4.617,4.44,4.715
	C-864.379-31.805-862.076-33.984-862.045-36.37z M-850.679-24.948c-2.338,0.076-4.562,2.439-4.486,4.768
	c0.081,2.486,2.181,4.382,4.806,4.338c2.654-0.044,4.485-1.981,4.375-4.628C-846.089-23.001-848.215-25.028-850.679-24.948z
	 M-834.229-31.924c2.522-0.064,4.569-2.195,4.477-4.663c-0.094-2.525-2.147-4.476-4.682-4.449c-2.597,0.027-4.403,1.942-4.382,4.646
	C-838.797-33.757-836.846-31.858-834.229-31.924z M-878.379-20.221c0.02-2.656-1.9-4.678-4.452-4.689
	c-2.367-0.01-4.661,2.263-4.678,4.634c-0.017,2.454,2.138,4.466,4.75,4.435C-880.099-15.873-878.398-17.573-878.379-20.221z"/>
<path d="M-836.69,59.79c-0.05-0.663-0.438-1.1-0.843-1.52c-2.71-2.808-5.449-5.587-8.126-8.426c-1.38-1.463-2.593-1.47-4-0.017
	c-2.599,2.684-5.259,5.311-7.934,7.922c-1.346,1.314-1.364,2.488,0.003,3.811c2.507,2.425,4.945,4.921,7.42,7.379
	c2.306,2.289,2.514,2.356,4.778,0.044c1.541-1.574,2.779-1.751,4.372-0.076c2.066,2.171,2.139,2.327-0.022,4.566
	c-2.088,2.164-2.094,2.458,0.059,4.622c2.519,2.531,5.094,5.008,7.572,7.578c1.307,1.355,2.423,1.474,3.777,0.071
	c2.595-2.689,5.233-5.338,7.92-7.935c1.554-1.501,1.463-2.723-0.131-4.152c-2.207-1.979-2.137-2.861-0.234-4.89
	c1.409-1.503,2.576-1.373,3.996,0.019c2.611,2.559,2.713,2.563,5.354-0.031c1.448-1.423,2.609-1.418,4.008,0.024
	c1.328,1.369,2.33,2.493,0.518,4.34c-2.738,2.79-2.648,2.88,0.169,5.709c2.227,2.236,4.504,4.425,6.67,6.718
	c1.425,1.51,2.655,1.708,4.178,0.116c2.525-2.64,5.119-5.217,7.763-7.74c1.567-1.495,1.459-2.723-0.073-4.17
	c-2.475-2.338-4.836-4.794-7.251-7.195c-2.333-2.318-2.425-2.374-4.77-0.06c-1.428,1.41-2.595,1.803-4.192,0.205
	c-2.24-2.241-2.408-2.574-0.073-4.714c1.76-1.614,1.797-2.841,0.024-4.466c-2.57-2.355-5.047-4.824-7.409-7.385
	c-1.656-1.795-2.919-1.658-4.504,0.069c-2.245,2.445-4.583,4.818-7.032,7.058c-1.785,1.632-2.07,3.008-0.141,4.686
	c1.477,1.285,2.14,2.695,0.389,4.408c-1.847,1.807-2.622,1.892-4.548,0.092c-2.38-2.224-2.61-2.299-5.029,0.153
	c-1.656,1.678-2.85,1.355-4.382-0.155c-1.592-1.569-1.737-2.849-0.009-4.344C-837.689,61.47-836.865,60.83-836.69,59.79z
	 M-826.888,75.69c0.032,2.467-2.048,4.608-4.531,4.663c-2.661,0.059-4.597-1.787-4.635-4.421c-0.037-2.554,1.905-4.617,4.44-4.715
	C-829.223,71.125-826.92,73.305-826.888,75.69z M-815.523,64.269c-2.338-0.076-4.562-2.439-4.486-4.768
	c0.081-2.486,2.181-4.382,4.806-4.338c2.654,0.044,4.485,1.981,4.375,4.628C-810.933,62.321-813.058,64.349-815.523,64.269z
	 M-799.073,71.244c2.522,0.064,4.569,2.195,4.477,4.663c-0.094,2.525-2.147,4.476-4.682,4.449c-2.597-0.027-4.403-1.942-4.382-4.646
	C-803.64,73.077-801.689,71.178-799.073,71.244z M-843.222,59.541c0.02,2.656-1.9,4.678-4.452,4.689
	c-2.367,0.01-4.661-2.263-4.678-4.634c-0.017-2.454,2.138-4.466,4.75-4.435C-844.943,55.193-843.242,56.894-843.222,59.541z"/>
<path style="fill:#D21736;" d="M-459.143-144.743c2.071-6.024,4.264-12.01,6.155-18.09c0.768-2.468,1.884-3.442,4.56-3.322
	c6.022,0.27,5.405-0.686,5.426,5.542c0.025,7.708-0.073,15.418,0.051,23.124c0.039,2.436-0.846,3.15-3.191,3.095
	c-2.185-0.051-3.65-0.178-3.543-3.011c0.189-5.01,0.053-10.031-0.356-15.11c-1.786,5.136-3.767,10.216-5.279,15.432
	c-0.822,2.837-2.674,2.525-4.772,2.68c-2.243,0.167-3.038-0.936-3.642-2.822c-1.69-5.274-3.527-10.502-5.729-15.707
	c0,5.074,0.028,10.148-0.022,15.221c-0.011,1.08,0.514,2.608-0.938,3.041c-1.571,0.468-3.31,0.47-4.91-0.062
	c-0.831-0.277-0.745-1.223-0.746-1.953c-0.014-9.034,0.008-18.069-0.026-27.103c-0.006-1.705,0.709-2.354,2.401-2.318
	c7.86,0.165,6.029-1.078,8.47,5.764c1.856,5.203,3.617,10.439,5.42,15.66C-459.591-144.701-459.367-144.722-459.143-144.743z"/>
<path d="M-542.417-150.89c0.001-4.141-0.014-8.283,0.005-12.424c0.014-3.107,0.173-3.264,3.202-3.274
	c4.155-0.013,8.31-0.001,12.465-0.004c1.083-0.001,2.117,0.099,3.157,0.534c3.191,1.337,5.322,3.242,4.582,7.111
	c-0.199,1.039-0.112,2.155-0.015,3.223c0.325,3.578,0.09,6.804-4.1,8.156c-1.255,0.405-0.907,1.32-0.384,2.21
	c1.638,2.786,3.205,5.615,4.868,8.386c0.871,1.451,0.64,1.908-1.13,2.072c-3.633,0.336-6.423-0.32-7.878-4.197
	c-0.833-2.22-2.359-4.176-3.515-6.282c-0.589-1.073-1.379-1.638-2.618-1.411c-1.407,0.258-1.194,1.404-1.21,2.36
	c-0.037,2.236-0.08,4.475,0,6.708c0.07,1.956-0.597,2.824-2.721,2.818c-4.706-0.014-4.707,0.08-4.708-4.555
	C-542.419-143.27-542.418-147.08-542.417-150.89z M-530.479-160.841c-4.53,0-4.53,0-4.524,4.367
	c0.006,3.873,0.006,3.873,4.793,3.871c4.105-0.002,4.105-0.002,4.106-4.014C-526.102-160.841-526.102-160.841-530.479-160.841z"/>
<path style="fill:#D21736;" d="M-411.036-150.306c0,3.065,0.001,6.129,0,9.194c-0.001,3.962-2.487,6.781-6.539,6.977
	c-3.896,0.189-7.816,0.187-11.712-0.003c-4.251-0.207-6.825-3.11-6.826-7.277c-0.001-5.881-0.001-11.762,0-17.642
	c0.001-4.339,2.594-7.188,7.004-7.366c3.816-0.154,7.65-0.164,11.464,0.007c4.008,0.18,6.607,3.048,6.608,6.916
	C-411.035-156.435-411.036-153.371-411.036-150.306z M-417.754-150.277c0-2.729-0.02-5.457,0.008-8.186
	c0.014-1.333-0.549-1.99-1.922-1.976c-2.488,0.025-4.977,0.02-7.466,0.004c-1.361-0.009-1.942,0.658-1.938,1.984
	c0.014,5.457,0.019,10.914-0.003,16.372c-0.006,1.533,0.812,2.002,2.201,1.983c2.322-0.032,4.647-0.053,6.968,0.008
	c1.624,0.042,2.208-0.696,2.173-2.25C-417.792-144.984-417.749-147.631-417.754-150.277z"/>
<path d="M-572.019-150.735c0.001-4.388,0.066-8.778-0.028-13.164c-0.044-2.05,0.741-2.775,2.784-2.724
	c4.317,0.108,8.639,0.078,12.958,0.016c2.618-0.037,4.51,1.488,6.519,2.773c0.781,0.499,0.802,1.408,0.805,2.245
	c0.01,3.229-0.073,6.461,0.033,9.686c0.069,2.099-1.32,2.912-2.841,3.627c-1.957,0.919-2.245,2.055-1.045,3.895
	c1.582,2.425,2.904,5.018,4.395,7.505c0.832,1.389,0.454,1.748-1.096,1.972c-3.954,0.571-6.663-0.598-8.175-4.517
	c-0.826-2.139-2.246-4.049-3.387-6.068c-0.602-1.065-1.491-1.546-2.698-1.285c-1.397,0.302-1.106,1.477-1.125,2.415
	c-0.045,2.318-0.066,4.637-0.01,6.954c0.043,1.785-0.69,2.632-2.522,2.465c-0.577-0.053-1.169-0.064-1.742,0.004
	c-2.218,0.262-2.909-0.769-2.857-2.883C-571.944-142.122-572.02-146.43-572.019-150.735z M-560.336-152.64
	c1.123-0.325,3.278,0.921,3.984-0.791c0.832-2.018,0.997-4.701-0.022-6.527c-1.125-2.016-3.796-0.584-5.768-0.842
	c-0.907-0.119-2.288-0.413-2.571,0.852c-0.471,2.099-0.348,4.278-0.041,6.413c0.094,0.656,0.722,0.872,1.34,0.888
	C-562.502-152.622-561.588-152.64-560.336-152.64z"/>
<path style="fill:#D21736;" d="M-393.67-134.084c-2.884,0.33-6.196,0.024-9.093-2.247c-1.308-1.026-2.192-5.087-1.27-6.542
	c0.465-0.734,4.701-1.151,5.685-0.503c0.309,0.204,0.678,0.632,0.67,0.949c-0.053,2.34,1.471,2.424,3.183,2.338
	c0.829-0.042,1.662-0.005,2.494-0.007c3.685-0.007,3.685-0.007,3.685-3.711c0-3.579-0.002-3.52-3.512-3.602
	c-3.271-0.076-6.622,0.601-9.666-1.479c-1.512-1.033-2.467-2.011-2.335-3.958c0.146-2.145,0.032-4.307,0.032-6.461
	c0.001-4.029,2.391-6.826,6.41-7.089c3.145-0.206,6.329-0.23,9.47,0.009c4.229,0.322,6.633,3.367,6.357,7.41
	c-0.101,1.475-0.725,2.179-2.155,2.04c-1.91-0.186-4.648,1.108-4.743-2.548c-0.017-0.648-0.682-0.908-1.309-0.914
	c-1.911-0.018-3.823-0.022-5.734-0.003c-1.011,0.01-1.394,0.597-1.541,1.571c-0.69,4.582-0.163,5.289,4.367,5.224
	c3.265-0.047,6.425-0.073,9.267,2.05c1.285,0.96,1.914,1.877,1.855,3.453c-0.086,2.317-0.02,4.64-0.021,6.96
	c-0.001,3.99-2.665,6.802-6.764,7.044C-389.911-134.006-391.495-134.084-393.67-134.084z"/>
<path style="fill:#D21736;" d="M-349.041-150.175c-0.002,4.393-0.113,8.789,0.038,13.176c0.095,2.75-1.6,2.553-3.418,2.564
	c-1.845,0.011-3.539,0.134-3.393-2.589c0.155-2.892-0.021-5.801,0.045-8.7c0.036-1.607-0.612-2.231-2.215-2.181
	c-2.492,0.076-4.99,0.081-7.482,0c-1.678-0.055-2.167,0.726-2.137,2.259c0.057,2.9-0.093,5.806,0.039,8.7
	c0.116,2.524-1.411,2.589-3.217,2.499c-1.674-0.083-3.603,0.494-3.576-2.38c0.083-8.95,0.087-17.902-0.004-26.852
	c-0.029-2.845,1.839-2.36,3.542-2.419c1.77-0.061,3.373-0.096,3.251,2.463c-0.126,2.646,0.018,5.303-0.03,7.955
	c-0.027,1.486,0.598,2.09,2.083,2.057c2.576-0.057,5.156-0.059,7.732-0.001c1.552,0.035,2.031-0.714,2.005-2.134
	c-0.045-2.485,0.152-4.985-0.045-7.455c-0.233-2.928,1.509-2.853,3.592-2.927c2.287-0.081,3.332,0.537,3.236,3.038
	C-349.158-158.799-349.039-154.484-349.041-150.175z"/>
<path d="M-579.935-134.946c-2.053,0.51-3.121-0.72-3.819-2.84c-1.266-3.845-0.629-3.763-5.432-3.75c-0.666,0.002-1.331,0-1.997,0
	c-4.791,0-4.791,0-6.704,4.488c-0.764,1.793-5.439,3.052-6.839,1.831c-0.648-0.565-0.302-1.244-0.09-1.839
	c3.32-9.296,6.665-18.582,9.989-27.877c0.423-1.182,1.203-1.71,2.453-1.66c0.997,0.04,2.002,0.072,2.994-0.013
	c1.695-0.145,2.556,0.632,3.108,2.192c3.045,8.601,6.177,17.172,9.246,25.764C-575.704-134.945-575.74-134.932-579.935-134.946z
	 M-590.326-156.796c-0.187,0.008-0.374,0.015-0.561,0.023c-0.615,1.684-1.256,3.36-1.84,5.055c-1.447,4.201-1.24,4.458,3.208,4.15
	c0.247-0.017,0.496-0.021,0.742-0.048c0.969-0.106,1.297-0.661,1.005-1.55C-588.609-151.714-589.472-154.253-590.326-156.796z"/>
<path d="M-505.458-142.548c0.771-4.366-0.763-8.066-3.085-11.675c-2.102-3.268-3.782-6.804-5.786-10.139
	c-1.105-1.84-0.506-2.069,1.342-2.288c3.727-0.441,6.163,0.738,7.455,4.394c0.626,1.772,1.832,3.333,2.683,5.035
	c0.796,1.592,1.435,1.265,2.139-0.032c1.224-2.256,2.473-4.5,3.691-6.76c1.171-2.172,5.838-3.647,7.934-2.459
	c1.104,0.626,0.214,1.318-0.085,1.859c-2.479,4.496-4.926,9.015-7.56,13.421c-1.245,2.083-1.814,4.177-1.69,6.582
	c0.128,2.476-0.011,4.965,0.028,7.448c0.025,1.559-0.625,2.316-2.227,2.215c-0.662-0.042-1.335-0.062-1.991,0.011
	c-2.213,0.247-2.996-0.796-2.866-2.895C-505.38-139.398-505.458-140.975-505.458-142.548z"/>
<path d="M-624.394-150.965c0-4.312,0.065-8.626-0.029-12.936c-0.045-2.057,0.76-2.928,2.794-2.693
	c0.164,0.019,0.333,0.002,0.499,0.001c3.782-0.02,3.792-0.02,3.797,3.661c0.008,6.219-0.001,12.439,0.004,18.658
	c0.003,3.568,0.009,3.569,3.569,3.576c1.664,0.003,3.332,0.077,4.991-0.012c2.215-0.119,2.351,1.267,2.354,2.903
	c0.004,1.654-0.18,2.932-2.379,2.884c-4.324-0.093-8.653-0.093-12.978,0.003c-1.949,0.043-2.676-0.698-2.644-2.613
	C-624.344-142.008-624.394-146.487-624.394-150.965z"/>
<image style="overflow:visible;" width="804" height="220" xlink:href="../AppData/Local/Packages/5319275A.WhatsAppDesktop_cv1g1gvanyjgm/TempState/77104E319B6CF8ADE9A957F7E772FE96/sharp_logo.png"  transform="matrix(0.5 0 0 0.5 -652.4066 225.6609)">
</image>
<g>
	<path d="M-552.488,19.954l-9.23-8.98c-0.88-0.86-2.28-0.84-3.14,0.04l-1.2,1.24c-0.89,0.9-2.34,0.92-3.25,0.04l-0.489-0.475
		c-0.927-0.901-0.927-2.389-0.001-3.291l1.02-0.994c0.87-0.86,0.89-2.26,0.04-3.14l-8.97-9.23c-0.86-0.88-2.27-0.9-3.16-0.04
		l-9.23,8.98c-0.88,0.85-0.9,2.26-0.04,3.14l1.2,1.23c0.88,0.91,0.86,2.37-0.05,3.25l-0.549,0.534c-0.891,0.866-2.31,0.866-3.201,0
		l-1.32-1.283c-0.88-0.85-2.29-0.83-3.14,0.05l-1.21,1.23c-0.88,0.91-2.33,0.93-3.24,0.05l-0.879-0.856
		c-0.926-0.901-0.927-2.389-0.001-3.29l1.041-1.014c0.88-0.85,0.9-2.27,0.04-3.15l-8.97-9.23c-0.85-0.87-2.26-0.89-3.14-0.04
		l-9.24,8.99c-0.88,0.85-0.9,2.26-0.04,3.14l1.2,1.23c0.88,0.91,0.86,2.37-0.05,3.25l-2.79,2.72c-0.91,0.88-2.36,0.86-3.25-0.05
		l-1.2-1.23c-0.85-0.88-2.26-0.9-3.14-0.05l-9.23,8.98c-0.88,0.86-0.9,2.26-0.04,3.14l8.98,9.24c0.85,0.87,2.26,0.89,3.14,0.04
		l9.23-8.98c0.88-0.86,0.9-2.26,0.04-3.14l-1.2-1.24c-0.88-0.91-0.86-2.36,0.05-3.24l2.79-2.72c0.9-0.88,2.37-0.86,3.25,0.04
		l1.2,1.24c0.852,0.88,2.256,0.901,3.133,0.047l1.432-1.394c0.893-0.869,2.316-0.868,3.207,0.003l1.058,1.034
		c0.91,0.88,0.93,2.34,0.05,3.25l-1.2,1.23c-0.86,0.88-0.84,2.29,0.04,3.14l9.24,8.99c0.88,0.85,2.28,0.83,3.14-0.05l8.97-9.22
		c0.86-0.88,0.84-2.3-0.04-3.16l-1.145-1.113c-0.928-0.902-0.928-2.392,0.001-3.294l0.364-0.353c0.91-0.88,2.36-0.86,3.24,0.05
		l1.21,1.23c0.85,0.88,2.26,0.9,3.14,0.04l1.452-1.414c0.89-0.867,2.308-0.868,3.2-0.004l0.683,0.662
		c0.91,0.883,0.931,2.347,0.045,3.255l-1.2,1.23c-0.85,0.88-0.83,2.29,0.04,3.14l9.24,8.99c0.88,0.85,2.29,0.83,3.14-0.04l8.98-9.23
		C-551.578,22.224-551.598,20.804-552.488,19.954z M-625.888,25.064l-3.26,3.17c-0.87,0.85-2.29,0.83-3.14-0.04l-3.16-3.26
		c-0.86-0.88-0.84-2.29,0.04-3.14l3.26-3.17c0.88-0.86,2.28-0.84,3.14,0.04l3.17,3.26
		C-624.988,22.794-625.008,24.204-625.888,25.064z M-607.388,7.064l-3.25,3.17c-0.88,0.85-2.3,0.84-3.15-0.04l-3.16-3.25
		c-0.86-0.89-0.83-2.29,0.05-3.15l3.25-3.17c0.88-0.85,2.28-0.83,3.14,0.05l3.17,3.25C-606.488,4.804-606.498,6.204-607.388,7.064z
		 M-590.678,23.184l-3.17,3.25c-0.86,0.88-2.26,0.9-3.14,0.04l-3.25-3.16c-0.89-0.86-0.91-2.27-0.05-3.15l3.16-3.25
		c0.85-0.88,2.27-0.9,3.15-0.04l0.96,0.94l0.08,0.07l2.21,2.16c0.02,0.02,0.04,0.04,0.06,0.06
		C-589.848,20.954-589.848,22.324-590.678,23.184z M-577.938,10.624c-0.88,0.86-2.29,0.84-3.15-0.04l-3.16-3.25
		c-0.86-0.88-0.84-2.29,0.05-3.15l3.25-3.17c0.88-0.85,2.29-0.83,3.14,0.05l3.17,3.25c0.85,0.88,0.83,2.28-0.05,3.14
		L-577.938,10.624z M-558.338,23.174l-3.17,3.25c-0.85,0.88-2.25,0.9-3.13,0.05l-3.26-3.17c-0.88-0.86-0.91-2.26-0.05-3.15
		l3.17-3.25c0.85-0.88,2.26-0.89,3.14-0.04l3.26,3.17C-557.498,20.894-557.488,22.294-558.338,23.174z"/>
	<path style="fill:fff;" d="M-569.798,36.587l1.02-0.994c0.87-0.86,0.89-2.26,0.04-3.14l-8.97-9.23
		c-0.86-0.88-2.27-0.9-3.16-0.04l-9.23,8.98c-0.88,0.85-0.9,2.26-0.04,3.14l1.2,1.23c0.88,0.91,0.86,2.37-0.05,3.25l-0.549,0.534
		c-0.891,0.866-2.31,0.866-3.201,0l-1.32-1.283c-0.88-0.85-2.29-0.83-3.14,0.05l-1.21,1.23c-0.88,0.91-2.33,0.93-3.24,0.05
		l-0.879-0.856c-0.926-0.901-0.927-2.389-0.001-3.29l1.041-1.014c0.88-0.85,0.9-2.27,0.04-3.15l-8.97-9.23
		c-0.85-0.87-2.26-0.89-3.14-0.04l-9.24,8.99c-0.88,0.85-0.9,2.26-0.04,3.14l1.2,1.23c0.88,0.91,5.7,5.86,6.58,6.76l1.2,1.24
		c0.852,0.88,2.256,0.901,3.133,0.047l1.432-1.394c0.893-0.869,2.316-0.868,3.207,0.003l1.058,1.034c0.91,0.88,0.93,2.34,0.05,3.25
		l-1.2,1.23c-0.86,0.88-0.84,2.29,0.04,3.14l9.24,8.99c0.88,0.85,2.28,0.83,3.14-0.05l8.97-9.22c0.86-0.88,0.84-2.3-0.04-3.16
		l-1.145-1.113c-0.928-0.902-0.928-2.392,0.001-3.294l0.364-0.353c0.91-0.88,2.36-0.86,3.24,0.05l1.21,1.23
		c0.85,0.88,2.26,0.9,3.14,0.04 M-607.388,35.124l-3.25,3.17c-0.88,0.85-2.3,0.84-3.15-0.04l-3.16-3.25
		c-0.86-0.89-0.83-2.29,0.05-3.15l3.25-3.17c0.88-0.85,2.28-0.83,3.14,0.05l3.17,3.25
		C-606.488,32.864-606.498,34.264-607.388,35.124z M-590.678,51.244l-3.17,3.25c-0.86,0.88-2.26,0.9-3.14,0.04l-3.25-3.16
		c-0.89-0.86-0.91-2.27-0.05-3.15l3.16-3.25c0.85-0.88,2.27-0.9,3.15-0.04l0.96,0.94l0.08,0.07l2.21,2.16
		c0.02,0.02,0.04,0.04,0.06,0.06C-589.848,49.014-589.848,50.384-590.678,51.244z M-577.938,38.684c-0.88,0.86-2.29,0.84-3.15-0.04
		l-3.16-3.25c-0.86-0.88-0.84-2.29,0.05-3.15l3.25-3.17c0.88-0.85,2.29-0.83,3.14,0.05l3.17,3.25c0.85,0.88,0.83,2.28-0.05,3.14
		L-577.938,38.684z"/>
</g>
<path d="M-588.344,13.958l-2.21-2.16l2.21,2.28l0.06-0.06C-588.304,13.998-588.324,13.978-588.344,13.958z"/>
<path d="M-801.667-56.724l-9.232,8.979c-0.881,0.857-0.9,2.265-0.044,3.145l8.979,9.232c0.857,0.881,2.265,0.9,3.145,0.044
	l9.232-8.979c0.881-0.857,0.9-2.265,0.044-3.145l-8.979-9.232C-799.378-57.561-800.786-57.58-801.667-56.724z M-801.887-41.261
	l-3.162-3.251c-0.857-0.881-0.837-2.289,0.044-3.145l3.257-3.168c0.881-0.857,2.289-0.837,3.146,0.044l3.162,3.251
	c0.857,0.881,0.837,2.289-0.044,3.145l-3.257,3.168C-799.622-40.361-801.03-40.38-801.887-41.261z"/>
<path d="M-783.507-75.372l-9.232,8.979c-0.881,0.857-0.9,2.265-0.044,3.145l8.979,9.232c0.857,0.881,2.265,0.9,3.145,0.044
	l9.232-8.979c0.881-0.857,0.9-2.265,0.044-3.145l-8.979-9.232C-781.218-76.209-782.626-76.228-783.507-75.372z M-783.727-59.909
	l-3.162-3.251c-0.857-0.881-0.837-2.289,0.044-3.145l3.257-3.168c0.881-0.857,2.289-0.837,3.145,0.044l3.162,3.251
	c0.857,0.881,0.837,2.289-0.044,3.145l-3.257,3.168C-781.462-59.009-782.871-59.028-783.727-59.909z"/>
<rect x="-794.879" y="-61.212" transform="matrix(0.6972 0.7169 -0.7169 0.6972 -278.875 550.4282)" width="7.71" height="12.597"/>
<path d="M-814.354,35.777l-1.968-2.024c-2.425-2.494-2.37-6.481,0.124-8.907v0c2.494-2.425,6.481-2.37,8.907,0.124l1.968,2.024
	c2.425,2.494,2.37,6.481-0.124,8.907l0,0C-807.941,38.326-811.929,38.271-814.354,35.777z"/>
<g>
	<g>
		<path style="fill:fff;" d="M-539.38,29.562h-6V14.269c0.277-0.055,0.68-0.131,1.208-0.229
			c0.527-0.097,1.055-0.146,1.583-0.146c1.111,0,1.923,0.202,2.438,0.604c0.514,0.403,0.771,1.146,0.771,2.229V29.562z
			 M-545.381,22.395h6v16.876l-2.833,0.375c-0.945,0-1.708-0.292-2.292-0.875c-0.583-0.583-0.875-1.347-0.875-2.292V22.395z
			 M-542.214,39.647v-4.875h13.167c0.194,0.25,0.361,0.583,0.5,1c0.139,0.417,0.208,0.861,0.208,1.333
			c0,0.833-0.194,1.465-0.583,1.896c-0.389,0.431-0.903,0.646-1.542,0.646H-542.214z"/>
		<path style="fill:fff;" d="M-513.754,19.228h-0.25c-0.306,0.917-0.653,1.952-1.042,3.104
			c-0.389,1.153-0.799,2.354-1.229,3.604c-0.431,1.25-0.827,2.473-1.188,3.667l-0.708,3.333c-0.167,0.528-0.333,1.098-0.5,1.708
			c-0.167,0.611-0.34,1.208-0.521,1.792c-0.181,0.583-0.348,1.146-0.5,1.688c-0.153,0.542-0.285,1.021-0.396,1.438
			c-0.306,0.111-0.64,0.208-1,0.292c-0.361,0.083-0.806,0.125-1.333,0.125c-1.056,0-1.875-0.202-2.458-0.604
			c-0.583-0.402-0.875-0.979-0.875-1.729c0-0.333,0.055-0.673,0.167-1.021c0.111-0.347,0.222-0.743,0.333-1.188
			c0.277-0.917,0.646-2.069,1.104-3.458c0.458-1.389,0.965-2.896,1.521-4.521c0.556-1.625,1.118-3.236,1.688-4.834
			c0.569-1.597,1.104-3.077,1.604-4.438c0.5-1.361,0.917-2.458,1.25-3.292c0.389-0.222,0.979-0.438,1.771-0.646
			c0.792-0.208,1.576-0.313,2.354-0.313c1.111,0,2.111,0.16,3,0.479c0.889,0.32,1.444,0.84,1.667,1.562
			c0.556,1.473,1.152,3.188,1.792,5.146c0.639,1.958,1.292,3.994,1.958,6.104c0.667,2.112,1.298,4.167,1.896,6.167
			c0.597,2,1.131,3.806,1.604,5.417c-0.278,0.333-0.694,0.604-1.25,0.812c-0.556,0.208-1.195,0.312-1.917,0.312
			c-1.083,0-1.848-0.188-2.292-0.562c-0.445-0.375-0.778-0.965-1-1.771l-1.5-4.959l-0.625-3.25
			c-0.389-1.277-0.778-2.542-1.167-3.792c-0.39-1.25-0.75-2.423-1.083-3.521C-513.212,20.986-513.504,20.035-513.754,19.228z
			 M-520.755,33.813l2.25-4.667h10.001l0.792,4.667H-520.755z"/>
		<path style="fill:fff;" d="M-488.71,30.896h-9.417V16.478c0-0.527,0.152-0.938,0.458-1.229
			c0.305-0.292,0.708-0.535,1.208-0.729c0.889-0.305,1.944-0.527,3.167-0.667c1.222-0.139,2.5-0.208,3.834-0.208
			c3.694,0,6.479,0.778,8.355,2.333c1.875,1.556,2.812,3.667,2.812,6.334c0,1.695-0.445,3.188-1.333,4.479
			c-0.889,1.292-2.111,2.299-3.667,3.021C-484.85,30.535-486.655,30.896-488.71,30.896z M-498.128,28.729h6v10.793
			c-0.278,0.055-0.674,0.125-1.188,0.208c-0.515,0.083-1.049,0.125-1.604,0.125c-1.167,0-1.994-0.215-2.479-0.646
			c-0.486-0.431-0.729-1.146-0.729-2.146V28.729z M-492.211,26.312h3c1.472,0,2.652-0.333,3.542-1
			c0.889-0.667,1.333-1.639,1.333-2.917c0-1.306-0.431-2.285-1.292-2.938c-0.861-0.652-2.167-0.979-3.917-0.979
			c-0.5,0-0.973,0.021-1.417,0.062c-0.444,0.042-0.861,0.104-1.25,0.188V26.312z M-489.71,29.479l5.208-1.292
			c0.667,0.861,1.354,1.736,2.063,2.625c0.708,0.89,1.381,1.75,2.021,2.584c0.639,0.833,1.222,1.598,1.75,2.292
			c0.527,0.695,0.93,1.278,1.208,1.75c-0.223,0.778-0.64,1.389-1.25,1.833c-0.611,0.444-1.278,0.667-2,0.667
			c-0.945,0-1.681-0.215-2.208-0.646c-0.528-0.43-1.014-1.006-1.458-1.729L-489.71,29.479z"/>
		<path style="fill:fff;" d="M-463.626,30.896h-9.417V16.478c0-0.527,0.152-0.938,0.458-1.229
			c0.305-0.292,0.708-0.535,1.208-0.729c0.889-0.305,1.944-0.527,3.167-0.667c1.222-0.139,2.5-0.208,3.834-0.208
			c3.693,0,6.479,0.778,8.354,2.333c1.875,1.556,2.812,3.667,2.812,6.334c0,1.695-0.444,3.188-1.333,4.479
			c-0.89,1.292-2.112,2.299-3.667,3.021C-459.765,30.535-461.571,30.896-463.626,30.896z M-473.043,28.729h6v10.793
			c-0.278,0.055-0.674,0.125-1.188,0.208c-0.515,0.083-1.049,0.125-1.604,0.125c-1.167,0-1.994-0.215-2.479-0.646
			c-0.486-0.431-0.729-1.146-0.729-2.146V28.729z M-467.126,26.312h3c1.472,0,2.652-0.333,3.541-1
			c0.889-0.667,1.334-1.639,1.334-2.917c0-1.306-0.432-2.285-1.292-2.938c-0.861-0.652-2.167-0.979-3.917-0.979
			c-0.5,0-0.973,0.021-1.417,0.062c-0.444,0.042-0.861,0.104-1.25,0.188V26.312z M-464.625,29.479l5.208-1.292
			c0.667,0.861,1.354,1.736,2.062,2.625c0.709,0.89,1.382,1.75,2.021,2.584c0.639,0.833,1.222,1.598,1.75,2.292
			c0.527,0.695,0.931,1.278,1.208,1.75c-0.223,0.778-0.639,1.389-1.25,1.833c-0.611,0.444-1.277,0.667-2,0.667
			c-0.944,0-1.681-0.215-2.208-0.646c-0.528-0.43-1.015-1.006-1.459-1.729L-464.625,29.479z"/>
		<path style="fill:fff;" d="M-437.123,31.313h-5.334c-0.723-1.083-1.515-2.292-2.375-3.625
			c-0.861-1.333-1.709-2.702-2.542-4.104c-0.834-1.402-1.619-2.764-2.354-4.084c-0.736-1.319-1.341-2.521-1.812-3.604
			c0.277-0.444,0.68-0.854,1.208-1.229c0.527-0.375,1.167-0.562,1.917-0.562c0.917,0,1.646,0.195,2.188,0.583
			c0.542,0.389,1.062,1.083,1.562,2.083c0.139,0.223,0.368,0.632,0.688,1.229c0.319,0.598,0.681,1.285,1.084,2.063
			c0.402,0.778,0.812,1.556,1.229,2.333c0.416,0.778,0.777,1.458,1.083,2.042c0.306,0.583,0.514,0.973,0.625,1.167h0.25
			c0.667-1.333,1.271-2.563,1.812-3.688c0.542-1.125,1.069-2.271,1.584-3.438c0.514-1.167,1.076-2.417,1.688-3.75
			c0.389-0.194,0.826-0.347,1.312-0.458c0.485-0.111,0.938-0.167,1.354-0.167c0.833,0,1.521,0.215,2.062,0.646
			s0.812,1.062,0.812,1.896c0,0.306-0.14,0.799-0.417,1.479c-0.277,0.681-0.729,1.598-1.354,2.75
			c-0.626,1.153-1.452,2.583-2.479,4.292C-434.36,26.875-435.623,28.924-437.123,31.313z M-442.749,29.104h5.834v10.418
			c-0.25,0.055-0.632,0.125-1.146,0.208c-0.515,0.083-1.021,0.125-1.521,0.125c-1.167,0-1.986-0.208-2.458-0.625
			c-0.473-0.417-0.709-1.125-0.709-2.125V29.104z"/>
	</g>
	<g>
		<path d="M-401.862,34.521c-0.306,0.223-0.702,0.417-1.188,0.583c-0.486,0.167-1.035,0.25-1.646,0.25
			c-0.806,0-1.486-0.104-2.041-0.312c-0.557-0.208-0.917-0.562-1.084-1.062c-1.028-2.694-1.89-4.979-2.583-6.855
			c-0.695-1.875-1.25-3.465-1.667-4.771h-0.209c-0.083,1.778-0.152,3.417-0.208,4.917s-0.104,2.952-0.146,4.354
			c-0.042,1.403-0.098,2.841-0.167,4.313c-0.069,1.473-0.146,3.07-0.229,4.792c-0.306,0.111-0.694,0.208-1.166,0.292
			c-0.473,0.083-0.959,0.125-1.459,0.125c-1,0-1.771-0.174-2.312-0.521c-0.542-0.347-0.812-0.923-0.812-1.729
			c0-0.583,0.034-1.479,0.104-2.688c0.068-1.208,0.152-2.611,0.25-4.209c0.097-1.597,0.201-3.285,0.312-5.063
			c0.11-1.777,0.229-3.535,0.354-5.271c0.125-1.736,0.229-3.34,0.312-4.813c0.223-0.277,0.652-0.583,1.292-0.917
			c0.639-0.333,1.5-0.5,2.584-0.5c1.193,0,2.146,0.195,2.854,0.583c0.708,0.389,1.215,1,1.521,1.833
			c0.472,1.083,0.958,2.306,1.459,3.667c0.5,1.361,1,2.736,1.5,4.125s0.958,2.653,1.375,3.792h0.208
			c0.834-2.528,1.681-4.986,2.542-7.376c0.86-2.389,1.611-4.375,2.25-5.958c0.361-0.194,0.826-0.354,1.396-0.479
			c0.568-0.125,1.173-0.188,1.812-0.188c1.11,0,2.014,0.167,2.708,0.5c0.694,0.333,1.111,0.82,1.251,1.458
			c0.11,0.528,0.229,1.361,0.354,2.5s0.257,2.458,0.396,3.958c0.139,1.5,0.277,3.07,0.416,4.708c0.139,1.64,0.264,3.229,0.375,4.771
			c0.111,1.542,0.215,2.938,0.312,4.188s0.16,2.236,0.188,2.958c-0.416,0.223-0.84,0.389-1.271,0.5
			c-0.431,0.111-0.966,0.167-1.604,0.167c-0.833,0-1.549-0.153-2.146-0.458c-0.598-0.306-0.924-0.903-0.979-1.792
			c-0.111-2.25-0.216-4.396-0.312-6.438c-0.098-2.042-0.174-3.917-0.229-5.625s-0.111-3.16-0.167-4.354h-0.208
			c-0.39,1.25-0.938,2.827-1.646,4.729C-399.924,29.112-400.806,31.549-401.862,34.521z"/>
		<path d="M-361.233,28.187c0,2.89-0.557,5.328-1.667,7.313c-1.111,1.986-2.633,3.486-4.562,4.5
			c-1.932,1.014-4.119,1.521-6.563,1.521c-2.445,0-4.64-0.507-6.584-1.521c-1.944-1.014-3.473-2.514-4.584-4.5
			c-1.111-1.986-1.667-4.424-1.667-7.313c0-2.889,0.569-5.319,1.709-7.292c1.139-1.972,2.681-3.472,4.625-4.5
			c1.944-1.027,4.111-1.542,6.501-1.542c2.389,0,4.556,0.515,6.501,1.542c1.943,1.028,3.479,2.528,4.604,4.5
			C-361.795,22.868-361.233,25.299-361.233,28.187z M-367.359,28.187c0-2.75-0.604-4.847-1.812-6.292
			c-1.208-1.444-2.827-2.167-4.854-2.167c-2,0-3.611,0.716-4.834,2.146c-1.223,1.431-1.833,3.536-1.833,6.313
			c0,2.807,0.604,4.924,1.812,6.355c1.208,1.431,2.826,2.146,4.854,2.146c2.027,0,3.646-0.715,4.854-2.146
			C-367.963,33.112-367.359,30.994-367.359,28.187z"/>
		<path d="M-348.94,36.647c1.527,0,2.639-0.285,3.333-0.854c0.694-0.569,1.042-1.271,1.042-2.104c0-0.75-0.271-1.361-0.812-1.833
			c-0.542-0.472-1.354-0.875-2.438-1.208l-2.376-0.75c-1.473-0.472-2.757-1.014-3.854-1.625c-1.098-0.611-1.958-1.389-2.583-2.333
			c-0.625-0.944-0.938-2.139-0.938-3.583c0-2.306,0.868-4.132,2.604-5.48c1.735-1.347,4.118-2.021,7.146-2.021
			c1.583,0,2.985,0.16,4.208,0.479c1.223,0.32,2.188,0.771,2.896,1.354c0.708,0.583,1.062,1.292,1.062,2.125
			c0,0.556-0.14,1.062-0.417,1.521c-0.277,0.458-0.625,0.827-1.041,1.104c-0.64-0.444-1.5-0.833-2.584-1.167
			c-1.083-0.333-2.265-0.5-3.542-0.5c-1.361,0-2.396,0.236-3.104,0.708c-0.708,0.473-1.062,1.098-1.062,1.875
			c0,0.583,0.235,1.07,0.708,1.458c0.473,0.389,1.194,0.736,2.167,1.042l2.334,0.708c2.5,0.75,4.424,1.757,5.771,3.021
			c1.347,1.265,2.021,2.979,2.021,5.146c0,2.306-0.896,4.181-2.688,5.625c-1.792,1.445-4.354,2.167-7.688,2.167
			c-1.694,0-3.208-0.181-4.542-0.542c-1.333-0.361-2.382-0.875-3.146-1.542c-0.765-0.667-1.146-1.444-1.146-2.333
			c0-0.667,0.201-1.243,0.604-1.729c0.402-0.486,0.854-0.854,1.354-1.104c0.75,0.611,1.693,1.16,2.833,1.646
			C-351.677,36.404-350.385,36.647-348.94,36.647z"/>
		<path d="M-327.898,30.854h-6V15.561c0.277-0.055,0.681-0.131,1.208-0.229c0.527-0.097,1.056-0.146,1.584-0.146
			c1.11,0,1.923,0.202,2.438,0.604c0.514,0.403,0.771,1.146,0.771,2.229V30.854z M-333.898,23.562h6v17.251
			c-0.277,0.055-0.674,0.125-1.188,0.208c-0.514,0.083-1.049,0.125-1.604,0.125c-1.167,0-1.994-0.215-2.479-0.646
			c-0.486-0.431-0.729-1.146-0.729-2.146V23.562z M-314.813,30.521h-16.335v-4.75h16.335V30.521z M-312.229,30.854h-6.001V15.561
			c0.277-0.055,0.681-0.131,1.208-0.229c0.527-0.097,1.056-0.146,1.584-0.146c1.11,0,1.923,0.208,2.438,0.625
			c0.514,0.417,0.771,1.167,0.771,2.25V30.854z M-318.23,23.562h6.001v17.251c-0.278,0.055-0.675,0.125-1.188,0.208
			c-0.514,0.083-1.049,0.125-1.604,0.125c-1.14,0-1.959-0.215-2.459-0.646c-0.5-0.431-0.75-1.146-0.75-2.146V23.562z"/>
	</g>
</g>
<g>
	<path d="M-553.681-59.76l-9.23-8.98c-0.88-0.86-2.28-0.84-3.14,0.04l-1.2,1.24c-0.89,0.9-2.34,0.92-3.25,0.04l-0.489-0.475
		c-0.927-0.901-0.927-2.389-0.001-3.291l1.02-0.994c0.87-0.86,0.89-2.26,0.04-3.14l-8.97-9.23c-0.86-0.88-2.27-0.9-3.16-0.04
		l-9.23,8.98c-0.88,0.85-0.9,2.26-0.04,3.14l1.2,1.23c0.88,0.91,0.86,2.37-0.05,3.25l-0.549,0.534c-0.891,0.866-2.31,0.866-3.201,0
		l-1.32-1.283c-0.88-0.85-2.29-0.83-3.14,0.05l-1.21,1.23c-0.88,0.91-2.33,0.93-3.24,0.05l-0.88-0.856
		c-0.926-0.901-0.927-2.389-0.001-3.29l1.041-1.014c0.88-0.85,0.9-2.27,0.04-3.15l-8.97-9.23c-0.85-0.87-2.26-0.89-3.14-0.04
		l-9.24,8.99c-0.88,0.85-0.9,2.26-0.04,3.14l1.2,1.23c0.88,0.91,0.86,2.37-0.05,3.25l-2.79,2.72c-0.91,0.88-2.36,0.86-3.25-0.05
		l-1.2-1.23c-0.85-0.88-2.26-0.9-3.14-0.05l-9.23,8.98c-0.88,0.86-0.9,2.26-0.04,3.14l8.98,9.24c0.85,0.87,2.26,0.89,3.14,0.04
		l9.23-8.98c0.88-0.86,0.9-2.26,0.04-3.14l-1.2-1.24c-0.88-0.91-0.86-2.36,0.05-3.24l2.79-2.72c0.9-0.88,2.37-0.86,3.25,0.04
		l1.2,1.24c0.852,0.88,2.256,0.901,3.133,0.047l1.432-1.394c0.893-0.869,2.316-0.868,3.207,0.003l1.058,1.034
		c0.91,0.88,0.93,2.34,0.05,3.25l-1.2,1.23c-0.86,0.88-0.84,2.29,0.04,3.14l9.24,8.99c0.88,0.85,2.28,0.83,3.14-0.05l8.97-9.22
		c0.86-0.88,0.84-2.3-0.04-3.16l-1.145-1.113c-0.928-0.902-0.928-2.392,0.001-3.294l0.364-0.353c0.91-0.88,2.36-0.86,3.24,0.05
		l1.21,1.23c0.85,0.88,2.26,0.9,3.14,0.04l1.452-1.414c0.89-0.867,2.308-0.868,3.2-0.004l0.683,0.662
		c0.91,0.883,0.931,2.347,0.045,3.255l-1.2,1.23c-0.85,0.88-0.83,2.29,0.04,3.14l9.24,8.99c0.88,0.85,2.29,0.83,3.14-0.04l8.98-9.23
		C-552.771-57.49-552.791-58.91-553.681-59.76z M-627.081-54.65l-3.26,3.17c-0.87,0.85-2.29,0.83-3.14-0.04l-3.16-3.26
		c-0.86-0.88-0.84-2.29,0.04-3.14l3.26-3.17c0.88-0.86,2.28-0.84,3.14,0.04l3.17,3.26C-626.181-56.92-626.201-55.51-627.081-54.65z
		 M-608.581-72.65l-3.25,3.17c-0.88,0.85-2.3,0.84-3.15-0.04l-3.16-3.25c-0.86-0.89-0.83-2.29,0.05-3.15l3.25-3.17
		c0.88-0.85,2.28-0.83,3.14,0.05l3.17,3.25C-607.681-74.91-607.691-73.51-608.581-72.65z M-591.871-56.53l-3.17,3.25
		c-0.86,0.88-2.26,0.9-3.14,0.04l-3.25-3.16c-0.89-0.86-0.91-2.27-0.05-3.15l3.16-3.25c0.85-0.88,2.27-0.9,3.15-0.04l0.96,0.94
		l0.08,0.07l2.21,2.16c0.02,0.02,0.04,0.04,0.06,0.06C-591.041-58.76-591.041-57.39-591.871-56.53z M-579.131-69.09
		c-0.88,0.86-2.29,0.84-3.15-0.04l-3.16-3.25c-0.86-0.88-0.84-2.29,0.05-3.15l3.25-3.17c0.88-0.85,2.29-0.83,3.14,0.05l3.17,3.25
		c0.85,0.88,0.83,2.28-0.05,3.14L-579.131-69.09z M-559.531-56.54l-3.17,3.25c-0.85,0.88-2.25,0.9-3.13,0.05l-3.26-3.17
		c-0.88-0.86-0.91-2.26-0.05-3.15l3.17-3.25c0.85-0.88,2.26-0.89,3.14-0.04l3.26,3.17C-558.691-58.82-558.681-57.42-559.531-56.54z"
		/>
	<path style="fill:#D21736;" d="M-570.991-43.127l1.02-0.994c0.87-0.86,0.89-2.26,0.04-3.14l-8.97-9.23
		c-0.86-0.88-2.27-0.9-3.16-0.04l-9.23,8.98c-0.88,0.85-0.9,2.26-0.04,3.14l1.2,1.23c0.88,0.91,0.86,2.37-0.05,3.25l-0.549,0.534
		c-0.891,0.866-2.31,0.866-3.201,0l-1.32-1.283c-0.88-0.85-2.29-0.83-3.14,0.05l-1.21,1.23c-0.88,0.91-2.33,0.93-3.24,0.05
		l-0.88-0.856c-0.926-0.901-0.927-2.389-0.001-3.29l1.041-1.014c0.88-0.85,0.9-2.27,0.04-3.15l-8.97-9.23
		c-0.85-0.87-2.26-0.89-3.14-0.04l-9.24,8.99c-0.88,0.85-0.9,2.26-0.04,3.14l1.2,1.23c0.88,0.91,5.7,5.86,6.58,6.76l1.2,1.24
		c0.852,0.88,2.256,0.901,3.133,0.047l1.432-1.394c0.893-0.869,2.316-0.868,3.207,0.003l1.058,1.034c0.91,0.88,0.93,2.34,0.05,3.25
		l-1.2,1.23c-0.86,0.88-0.84,2.29,0.04,3.14l9.24,8.99c0.88,0.85,2.28,0.83,3.14-0.05l8.97-9.22c0.86-0.88,0.84-2.3-0.04-3.16
		l-1.145-1.113c-0.928-0.902-0.928-2.392,0.001-3.294l0.364-0.353c0.91-0.88,2.36-0.86,3.24,0.05l1.21,1.23
		c0.85,0.88,2.26,0.9,3.14,0.04 M-608.581-44.591l-3.25,3.17c-0.88,0.85-2.3,0.84-3.15-0.04l-3.16-3.25
		c-0.86-0.89-0.83-2.29,0.05-3.15l3.25-3.17c0.88-0.85,2.28-0.83,3.14,0.05l3.17,3.25
		C-607.681-46.851-607.691-45.451-608.581-44.591z M-591.871-28.471l-3.17,3.25c-0.86,0.88-2.26,0.9-3.14,0.04l-3.25-3.16
		c-0.89-0.86-0.91-2.27-0.05-3.15l3.16-3.25c0.85-0.88,2.27-0.9,3.15-0.04l0.96,0.94l0.08,0.07l2.21,2.16
		c0.02,0.02,0.04,0.04,0.06,0.06C-591.041-30.701-591.041-29.331-591.871-28.471z M-579.131-41.031c-0.88,0.86-2.29,0.84-3.15-0.04
		l-3.16-3.25c-0.86-0.88-0.84-2.29,0.05-3.15l3.25-3.17c0.88-0.85,2.29-0.83,3.14,0.05l3.17,3.25c0.85,0.88,0.83,2.28-0.05,3.14
		L-579.131-41.031z"/>
</g>
<path d="M-589.537-65.756l-2.21-2.16l2.21,2.28l0.06-0.06C-589.497-65.716-589.517-65.736-589.537-65.756z"/>
<g>
	<path style="fill:#D21736;" d="M-537.85-56.007h-6V-71.3c0.277-0.055,0.68-0.131,1.208-0.229c0.527-0.097,1.055-0.146,1.583-0.146
		c1.111,0,1.923,0.202,2.438,0.604c0.514,0.403,0.771,1.146,0.771,2.229V-56.007z M-543.85-63.174h6v16.876l-2.833,0.375
		c-0.945,0-1.708-0.292-2.292-0.875c-0.583-0.583-0.875-1.347-0.875-2.292V-63.174z M-540.683-45.922v-4.875h13.167
		c0.194,0.25,0.361,0.583,0.5,1c0.139,0.417,0.208,0.861,0.208,1.333c0,0.833-0.194,1.465-0.583,1.896
		c-0.389,0.431-0.903,0.646-1.542,0.646H-540.683z"/>
	<path style="fill:#D21736;" d="M-512.223-66.341h-0.25c-0.306,0.917-0.653,1.952-1.042,3.104c-0.389,1.153-0.799,2.354-1.229,3.604
		c-0.431,1.25-0.827,2.473-1.188,3.667l-0.708,3.333c-0.167,0.528-0.333,1.098-0.5,1.708c-0.167,0.611-0.34,1.208-0.521,1.792
		c-0.181,0.583-0.348,1.146-0.5,1.688c-0.153,0.542-0.285,1.021-0.396,1.438c-0.306,0.111-0.64,0.208-1,0.292
		c-0.361,0.083-0.806,0.125-1.333,0.125c-1.056,0-1.875-0.202-2.458-0.604c-0.583-0.402-0.875-0.979-0.875-1.729
		c0-0.333,0.055-0.673,0.167-1.021c0.111-0.347,0.222-0.743,0.333-1.188c0.277-0.917,0.646-2.069,1.104-3.458
		c0.458-1.389,0.965-2.896,1.521-4.521c0.556-1.625,1.118-3.236,1.688-4.834c0.569-1.597,1.104-3.077,1.604-4.438
		c0.5-1.361,0.917-2.458,1.25-3.292c0.389-0.222,0.979-0.438,1.771-0.646c0.792-0.208,1.576-0.313,2.354-0.313
		c1.111,0,2.111,0.16,3,0.479c0.889,0.32,1.444,0.84,1.667,1.562c0.556,1.473,1.152,3.188,1.792,5.146
		c0.639,1.958,1.292,3.994,1.958,6.104c0.667,2.112,1.298,4.167,1.896,6.167c0.597,2,1.131,3.806,1.604,5.417
		c-0.278,0.333-0.694,0.604-1.25,0.812c-0.556,0.208-1.195,0.312-1.917,0.312c-1.083,0-1.848-0.188-2.292-0.562
		c-0.445-0.375-0.778-0.965-1-1.771l-1.5-4.959l-0.625-3.25c-0.389-1.277-0.778-2.542-1.167-3.792
		c-0.39-1.25-0.75-2.423-1.083-3.521C-511.682-64.583-511.973-65.534-512.223-66.341z M-519.224-51.756l2.25-4.667h10.001
		l0.792,4.667H-519.224z"/>
	<path style="fill:#D21736;" d="M-487.18-54.673h-9.417v-14.418c0-0.527,0.152-0.938,0.458-1.229
		c0.305-0.292,0.708-0.535,1.208-0.729c0.889-0.305,1.944-0.527,3.167-0.667c1.222-0.139,2.5-0.208,3.834-0.208
		c3.694,0,6.479,0.778,8.355,2.333c1.875,1.556,2.812,3.667,2.812,6.334c0,1.695-0.445,3.188-1.333,4.479
		c-0.889,1.292-2.111,2.299-3.667,3.021C-483.319-55.034-485.124-54.673-487.18-54.673z M-496.597-56.84h6v10.793
		c-0.278,0.055-0.674,0.125-1.188,0.208c-0.515,0.083-1.049,0.125-1.604,0.125c-1.167,0-1.994-0.215-2.479-0.646
		c-0.486-0.431-0.729-1.146-0.729-2.146V-56.84z M-490.68-59.257h3c1.472,0,2.652-0.333,3.542-1
		c0.889-0.667,1.333-1.639,1.333-2.917c0-1.306-0.431-2.285-1.292-2.938c-0.861-0.652-2.167-0.979-3.917-0.979
		c-0.5,0-0.973,0.021-1.417,0.062c-0.444,0.042-0.861,0.104-1.25,0.188V-59.257z M-488.18-56.09l5.208-1.292
		c0.667,0.861,1.354,1.736,2.063,2.625c0.708,0.89,1.381,1.75,2.021,2.584c0.639,0.833,1.222,1.598,1.75,2.292
		c0.527,0.695,0.93,1.278,1.208,1.75c-0.223,0.778-0.64,1.389-1.25,1.833c-0.611,0.444-1.278,0.667-2,0.667
		c-0.945,0-1.681-0.215-2.208-0.646c-0.528-0.43-1.014-1.006-1.458-1.729L-488.18-56.09z"/>
	<path style="fill:#D21736;" d="M-462.096-54.673h-9.417v-14.418c0-0.527,0.152-0.938,0.458-1.229
		c0.305-0.292,0.708-0.535,1.208-0.729c0.889-0.305,1.944-0.527,3.167-0.667c1.222-0.139,2.5-0.208,3.834-0.208
		c3.693,0,6.479,0.778,8.354,2.333c1.875,1.556,2.812,3.667,2.812,6.334c0,1.695-0.444,3.188-1.333,4.479
		c-0.89,1.292-2.112,2.299-3.667,3.021C-458.235-55.034-460.04-54.673-462.096-54.673z M-471.513-56.84h6v10.793
		c-0.278,0.055-0.674,0.125-1.188,0.208c-0.515,0.083-1.049,0.125-1.604,0.125c-1.167,0-1.994-0.215-2.479-0.646
		c-0.486-0.431-0.729-1.146-0.729-2.146V-56.84z M-465.596-59.257h3c1.472,0,2.652-0.333,3.541-1
		c0.889-0.667,1.334-1.639,1.334-2.917c0-1.306-0.432-2.285-1.292-2.938c-0.861-0.652-2.167-0.979-3.917-0.979
		c-0.5,0-0.973,0.021-1.417,0.062c-0.444,0.042-0.861,0.104-1.25,0.188V-59.257z M-463.095-56.09l5.208-1.292
		c0.667,0.861,1.354,1.736,2.062,2.625c0.709,0.89,1.382,1.75,2.021,2.584c0.639,0.833,1.222,1.598,1.75,2.292
		c0.527,0.695,0.931,1.278,1.208,1.75c-0.223,0.778-0.639,1.389-1.25,1.833c-0.611,0.444-1.277,0.667-2,0.667
		c-0.944,0-1.681-0.215-2.208-0.646c-0.528-0.43-1.015-1.006-1.459-1.729L-463.095-56.09z"/>
	<path style="fill:#D21736;" d="M-435.593-54.256h-5.334c-0.723-1.083-1.515-2.292-2.375-3.625
		c-0.861-1.333-1.709-2.702-2.542-4.104c-0.834-1.402-1.619-2.764-2.354-4.084c-0.736-1.319-1.341-2.521-1.812-3.604
		c0.277-0.444,0.68-0.854,1.208-1.229c0.527-0.375,1.167-0.562,1.917-0.562c0.917,0,1.646,0.195,2.188,0.583
		c0.542,0.389,1.062,1.083,1.562,2.083c0.139,0.223,0.368,0.632,0.688,1.229c0.319,0.598,0.681,1.285,1.084,2.063
		c0.402,0.778,0.812,1.556,1.229,2.333c0.416,0.778,0.777,1.458,1.083,2.042c0.306,0.583,0.514,0.973,0.625,1.167h0.25
		c0.667-1.333,1.271-2.563,1.812-3.688c0.542-1.125,1.069-2.271,1.584-3.438c0.514-1.167,1.076-2.417,1.688-3.75
		c0.389-0.194,0.826-0.347,1.312-0.458c0.485-0.111,0.938-0.167,1.354-0.167c0.833,0,1.521,0.215,2.062,0.646
		s0.812,1.062,0.812,1.896c0,0.306-0.14,0.799-0.417,1.479c-0.277,0.681-0.729,1.598-1.354,2.75
		c-0.626,1.153-1.452,2.583-2.479,4.292C-432.829-58.694-434.093-56.645-435.593-54.256z M-441.219-56.465h5.834v10.418
		c-0.25,0.055-0.632,0.125-1.146,0.208c-0.515,0.083-1.021,0.125-1.521,0.125c-1.167,0-1.986-0.208-2.458-0.625
		c-0.473-0.417-0.709-1.125-0.709-2.125V-56.465z"/>
</g>
<g>
	<path d="M-400.331-51.048c-0.306,0.223-0.702,0.417-1.188,0.583c-0.486,0.167-1.035,0.25-1.646,0.25
		c-0.806,0-1.486-0.104-2.041-0.312c-0.557-0.208-0.917-0.562-1.084-1.062c-1.028-2.694-1.89-4.979-2.583-6.855
		c-0.695-1.875-1.25-3.465-1.667-4.771h-0.209c-0.083,1.778-0.152,3.417-0.208,4.917s-0.104,2.952-0.146,4.354
		c-0.042,1.403-0.098,2.841-0.167,4.313c-0.069,1.473-0.146,3.07-0.229,4.792c-0.306,0.111-0.694,0.208-1.166,0.292
		c-0.473,0.083-0.959,0.125-1.459,0.125c-1,0-1.771-0.174-2.312-0.521c-0.542-0.347-0.812-0.923-0.812-1.729
		c0-0.583,0.034-1.479,0.104-2.688c0.068-1.208,0.152-2.611,0.25-4.209c0.097-1.597,0.201-3.285,0.312-5.063
		c0.11-1.777,0.229-3.535,0.354-5.271c0.125-1.736,0.229-3.34,0.312-4.813c0.223-0.277,0.652-0.583,1.292-0.917
		c0.639-0.333,1.5-0.5,2.584-0.5c1.193,0,2.146,0.195,2.854,0.583c0.708,0.389,1.215,1,1.521,1.833
		c0.472,1.083,0.958,2.306,1.459,3.667c0.5,1.361,1,2.736,1.5,4.125s0.958,2.653,1.375,3.792h0.208
		c0.834-2.528,1.681-4.986,2.542-7.376c0.86-2.389,1.611-4.375,2.25-5.958c0.361-0.194,0.826-0.354,1.396-0.479
		c0.568-0.125,1.173-0.188,1.812-0.188c1.11,0,2.014,0.167,2.708,0.5c0.694,0.333,1.111,0.82,1.251,1.458
		c0.11,0.528,0.229,1.361,0.354,2.5s0.257,2.458,0.396,3.958c0.139,1.5,0.277,3.07,0.416,4.708c0.139,1.64,0.264,3.229,0.375,4.771
		s0.215,2.938,0.312,4.188s0.16,2.236,0.188,2.958c-0.416,0.223-0.84,0.389-1.271,0.5c-0.431,0.111-0.966,0.167-1.604,0.167
		c-0.833,0-1.549-0.153-2.146-0.458c-0.598-0.306-0.924-0.903-0.979-1.792c-0.111-2.25-0.216-4.396-0.312-6.438
		c-0.098-2.042-0.174-3.917-0.229-5.625s-0.111-3.16-0.167-4.354h-0.208c-0.39,1.25-0.938,2.827-1.646,4.729
		C-398.394-56.457-399.276-54.02-400.331-51.048z"/>
	<path d="M-359.702-57.382c0,2.89-0.557,5.328-1.667,7.313c-1.111,1.986-2.633,3.486-4.562,4.5
		c-1.932,1.014-4.119,1.521-6.563,1.521c-2.445,0-4.64-0.507-6.584-1.521c-1.944-1.014-3.473-2.514-4.584-4.5
		c-1.111-1.986-1.667-4.424-1.667-7.313c0-2.889,0.569-5.319,1.709-7.292c1.139-1.972,2.681-3.472,4.625-4.5
		c1.944-1.027,4.111-1.542,6.501-1.542c2.389,0,4.556,0.515,6.501,1.542c1.943,1.028,3.479,2.528,4.604,4.5
		C-360.265-62.701-359.702-60.27-359.702-57.382z M-365.828-57.382c0-2.75-0.604-4.847-1.812-6.292
		c-1.208-1.444-2.827-2.167-4.854-2.167c-2,0-3.611,0.716-4.834,2.146c-1.223,1.431-1.833,3.536-1.833,6.313
		c0,2.807,0.604,4.924,1.812,6.355c1.208,1.431,2.826,2.146,4.854,2.146c2.027,0,3.646-0.715,4.854-2.146
		C-366.433-52.457-365.828-54.575-365.828-57.382z"/>
	<path d="M-347.409-48.922c1.527,0,2.639-0.285,3.333-0.854c0.694-0.569,1.042-1.271,1.042-2.104c0-0.75-0.271-1.361-0.812-1.833
		c-0.542-0.472-1.354-0.875-2.438-1.208l-2.376-0.75c-1.473-0.472-2.757-1.014-3.854-1.625c-1.098-0.611-1.958-1.389-2.583-2.333
		c-0.625-0.944-0.938-2.139-0.938-3.583c0-2.306,0.868-4.132,2.604-5.48c1.735-1.347,4.118-2.021,7.146-2.021
		c1.583,0,2.985,0.16,4.208,0.479c1.223,0.32,2.188,0.771,2.896,1.354c0.708,0.583,1.062,1.292,1.062,2.125
		c0,0.556-0.14,1.062-0.417,1.521c-0.277,0.458-0.625,0.827-1.041,1.104c-0.64-0.444-1.5-0.833-2.584-1.167
		c-1.083-0.333-2.265-0.5-3.542-0.5c-1.361,0-2.396,0.236-3.104,0.708c-0.708,0.473-1.062,1.098-1.062,1.875
		c0,0.583,0.235,1.07,0.708,1.458c0.473,0.389,1.194,0.736,2.167,1.042l2.334,0.708c2.5,0.75,4.424,1.757,5.771,3.021
		c1.347,1.265,2.021,2.979,2.021,5.146c0,2.306-0.896,4.181-2.688,5.625c-1.792,1.445-4.354,2.167-7.688,2.167
		c-1.694,0-3.208-0.181-4.542-0.542c-1.333-0.361-2.382-0.875-3.146-1.542c-0.765-0.667-1.146-1.444-1.146-2.333
		c0-0.667,0.201-1.243,0.604-1.729c0.402-0.486,0.854-0.854,1.354-1.104c0.75,0.611,1.693,1.16,2.833,1.646
		C-350.147-49.165-348.855-48.922-347.409-48.922z"/>
	<path d="M-326.367-54.715h-6v-15.293c0.277-0.055,0.681-0.131,1.208-0.229c0.527-0.097,1.056-0.146,1.584-0.146
		c1.11,0,1.923,0.202,2.438,0.604c0.514,0.403,0.771,1.146,0.771,2.229V-54.715z M-332.367-62.007h6v17.251
		c-0.277,0.055-0.674,0.125-1.188,0.208c-0.514,0.083-1.049,0.125-1.604,0.125c-1.167,0-1.994-0.215-2.479-0.646
		c-0.486-0.431-0.729-1.146-0.729-2.146V-62.007z M-313.283-55.048h-16.335v-4.75h16.335V-55.048z M-310.699-54.715h-6.001v-15.293
		c0.277-0.055,0.681-0.131,1.208-0.229c0.527-0.097,1.056-0.146,1.584-0.146c1.11,0,1.923,0.208,2.438,0.625
		c0.514,0.417,0.771,1.167,0.771,2.25V-54.715z M-316.7-62.007h6.001v17.251c-0.278,0.055-0.675,0.125-1.188,0.208
		c-0.514,0.083-1.049,0.125-1.604,0.125c-1.14,0-1.959-0.215-2.459-0.646c-0.5-0.431-0.75-1.146-0.75-2.146V-62.007z"/>
</g>
<g>
	<path d="M165.097,77.379l-15.895-15.464c-1.515-1.481-3.926-1.446-5.407,0.069l-2.067,2.135c-1.533,1.55-4.03,1.584-5.597,0.069
		l-0.842-0.819c-1.596-1.552-1.597-4.114-0.002-5.667l1.757-1.712c1.498-1.481,1.533-3.892,0.069-5.407l-15.447-15.895
		c-1.481-1.515-3.909-1.55-5.442-0.069l-15.895,15.464c-1.515,1.464-1.55,3.892-0.069,5.407l2.066,2.118
		c1.515,1.567,1.481,4.081-0.086,5.597l-0.946,0.919c-1.535,1.492-3.978,1.492-5.513-0.001l-2.272-2.21
		c-1.515-1.464-3.944-1.429-5.407,0.086l-2.084,2.118c-1.515,1.567-4.012,1.602-5.58,0.086l-1.515-1.473
		c-1.595-1.552-1.596-4.113-0.002-5.666l1.792-1.746c1.515-1.464,1.55-3.909,0.069-5.425L65.336,34
		c-1.464-1.498-3.892-1.533-5.407-0.069L44.017,49.413c-1.515,1.464-1.55,3.892-0.069,5.407l2.067,2.118
		c1.515,1.567,1.481,4.081-0.086,5.597l-4.805,4.684c-1.567,1.515-4.064,1.481-5.597-0.086l-2.067-2.118
		c-1.464-1.515-3.892-1.55-5.407-0.086L12.158,80.393c-1.515,1.481-1.55,3.892-0.069,5.407l15.464,15.912
		c1.464,1.498,3.892,1.533,5.407,0.069l15.895-15.464c1.515-1.481,1.55-3.892,0.069-5.407l-2.067-2.135
		c-1.515-1.567-1.481-4.064,0.086-5.58l4.805-4.684c1.55-1.515,4.081-1.481,5.597,0.069l2.067,2.135
		c1.466,1.515,3.885,1.551,5.396,0.08l2.466-2.401c1.537-1.497,3.988-1.494,5.522,0.005l1.822,1.781
		c1.567,1.515,1.602,4.03,0.086,5.597l-2.067,2.118c-1.481,1.515-1.446,3.944,0.069,5.407l15.912,15.482
		c1.515,1.464,3.926,1.429,5.407-0.086l15.447-15.878c1.481-1.515,1.447-3.961-0.069-5.442l-1.972-1.916
		c-1.598-1.553-1.598-4.12,0.001-5.673l0.627-0.609c1.567-1.515,4.064-1.481,5.58,0.086l2.084,2.118
		c1.464,1.515,3.892,1.55,5.407,0.069l2.5-2.434c1.533-1.493,3.975-1.495,5.511-0.006l1.176,1.14
		c1.568,1.52,1.603,4.043,0.078,5.606l-2.067,2.118c-1.464,1.515-1.429,3.944,0.069,5.407l15.912,15.482
		c1.515,1.464,3.944,1.429,5.407-0.069l15.464-15.895C166.664,81.288,166.63,78.843,165.097,77.379z M38.696,86.179l-5.614,5.459
		c-1.498,1.464-3.944,1.429-5.407-0.069l-5.442-5.614c-1.481-1.515-1.447-3.944,0.069-5.407l5.614-5.459
		c1.515-1.481,3.926-1.447,5.407,0.069l5.459,5.614C40.246,82.27,40.211,84.698,38.696,86.179z M70.554,55.182l-5.597,5.459
		c-1.515,1.464-3.961,1.447-5.425-0.069l-5.442-5.597c-1.481-1.533-1.429-3.944,0.086-5.425l5.597-5.459
		c1.515-1.464,3.926-1.429,5.407,0.086l5.459,5.597C72.104,51.29,72.087,53.701,70.554,55.182z M99.33,82.942l-5.459,5.597
		c-1.481,1.515-3.892,1.55-5.407,0.069l-5.597-5.442c-1.533-1.481-1.567-3.909-0.086-5.425l5.442-5.597
		c1.464-1.515,3.909-1.55,5.425-0.069l1.653,1.619l0.138,0.121l3.806,3.72c0.034,0.034,0.069,0.069,0.103,0.103
		C100.76,79.101,100.76,81.461,99.33,82.942z M121.27,61.312c-1.515,1.481-3.944,1.447-5.425-0.069l-5.442-5.597
		c-1.481-1.515-1.446-3.944,0.086-5.425l5.597-5.459c1.515-1.464,3.944-1.429,5.407,0.086l5.459,5.597
		c1.464,1.515,1.429,3.926-0.086,5.407L121.27,61.312z M155.023,82.924l-5.459,5.597c-1.464,1.515-3.875,1.55-5.39,0.086
		l-5.614-5.459c-1.515-1.481-1.567-3.892-0.086-5.425l5.459-5.597c1.464-1.515,3.892-1.533,5.407-0.069l5.614,5.459
		C156.469,78.998,156.486,81.409,155.023,82.924z"/>
	<path style="fill:#D21736;" d="M135.287,106.024l1.757-1.712c1.498-1.481,1.533-3.892,0.069-5.407L121.666,83.01
		c-1.481-1.515-3.909-1.55-5.442-0.069l-15.895,15.464c-1.515,1.464-1.55,3.892-0.069,5.407l2.066,2.118
		c1.515,1.567,1.481,4.081-0.086,5.597l-0.946,0.919c-1.535,1.492-3.978,1.492-5.513-0.001l-2.272-2.21
		c-1.515-1.464-3.944-1.429-5.407,0.086l-2.084,2.118c-1.515,1.567-4.012,1.602-5.58,0.086l-1.515-1.473
		c-1.595-1.552-1.596-4.113-0.002-5.666l1.792-1.746c1.515-1.464,1.55-3.909,0.069-5.425L65.336,82.321
		c-1.464-1.498-3.892-1.533-5.407-0.069L44.017,97.734c-1.515,1.464-1.55,3.892-0.069,5.407l2.067,2.118
		c1.515,1.567,9.816,10.091,11.331,11.641l2.067,2.135c1.466,1.515,3.885,1.551,5.396,0.08l2.466-2.401
		c1.537-1.497,3.988-1.494,5.522,0.005l1.822,1.781c1.567,1.515,1.602,4.03,0.086,5.597l-2.067,2.118
		c-1.481,1.515-1.446,3.944,0.069,5.407l15.912,15.482c1.515,1.464,3.926,1.429,5.407-0.086l15.447-15.878
		c1.481-1.515,1.447-3.961-0.069-5.442l-1.972-1.916c-1.598-1.553-1.598-4.12,0.001-5.672l0.627-0.609
		c1.567-1.515,4.064-1.481,5.58,0.086l2.084,2.118c1.464,1.515,3.892,1.55,5.407,0.069 M70.554,103.503l-5.597,5.459
		c-1.515,1.464-3.961,1.447-5.425-0.069l-5.442-5.597c-1.481-1.533-1.429-3.944,0.086-5.425l5.597-5.459
		c1.515-1.464,3.926-1.429,5.407,0.086l5.459,5.597C72.104,99.611,72.087,102.022,70.554,103.503z M99.33,131.263l-5.459,5.597
		c-1.481,1.515-3.892,1.55-5.407,0.069l-5.597-5.442c-1.533-1.481-1.567-3.909-0.086-5.425l5.442-5.597
		c1.464-1.515,3.909-1.55,5.425-0.069l1.653,1.619l0.138,0.121l3.806,3.72c0.034,0.034,0.069,0.069,0.103,0.103
		C100.76,127.422,100.76,129.782,99.33,131.263z M121.27,109.633c-1.515,1.481-3.944,1.447-5.425-0.069l-5.442-5.597
		c-1.481-1.515-1.446-3.944,0.086-5.425l5.597-5.459c1.515-1.464,3.944-1.429,5.407,0.086l5.459,5.597
		c1.464,1.515,1.429,3.926-0.086,5.407L121.27,109.633z"/>
</g>
<path d="M103.35,67.053l-3.806-3.72l3.806,3.926l0.103-0.103C103.418,67.122,103.384,67.088,103.35,67.053z"/>
<g>
	<path style="fill:#D21736;" d="M192.36,83.844h-10.333V57.508c0.478-0.095,1.171-0.226,2.081-0.394
		c0.908-0.167,1.817-0.251,2.727-0.251c1.913,0,3.312,0.347,4.198,1.041c0.885,0.694,1.328,1.973,1.328,3.839V83.844z
		 M182.026,71.501h10.333v29.063l-4.88,0.646c-1.627,0-2.942-0.503-3.947-1.507c-1.005-1.005-1.507-2.32-1.507-3.947V71.501z
		 M187.48,101.21v-8.396h22.676c0.335,0.431,0.621,1.005,0.862,1.722c0.239,0.717,0.358,1.483,0.358,2.296
		c0,1.435-0.335,2.523-1.005,3.265c-0.67,0.742-1.555,1.112-2.655,1.112H187.48z"/>
	<path style="fill:#D21736;" d="M236.491,66.048h-0.431c-0.527,1.578-1.125,3.361-1.794,5.346c-0.67,1.985-1.376,4.054-2.116,6.207
		c-0.742,2.153-1.424,4.258-2.046,6.315l-1.219,5.741c-0.288,0.909-0.574,1.89-0.862,2.942c-0.287,1.053-0.586,2.081-0.896,3.085
		c-0.312,1.005-0.599,1.974-0.861,2.907c-0.264,0.933-0.491,1.758-0.682,2.476c-0.527,0.191-1.102,0.359-1.722,0.502
		c-0.622,0.144-1.388,0.215-2.296,0.215c-1.819,0-3.23-0.347-4.234-1.04c-1.005-0.693-1.507-1.687-1.507-2.978
		c0-0.573,0.095-1.159,0.287-1.758c0.191-0.597,0.383-1.279,0.574-2.045c0.478-1.578,1.112-3.563,1.901-5.956
		c0.79-2.391,1.662-4.987,2.619-7.786c0.957-2.799,1.926-5.573,2.906-8.325c0.98-2.75,1.902-5.298,2.763-7.643
		c0.861-2.343,1.578-4.234,2.153-5.669c0.669-0.382,1.687-0.753,3.05-1.112c1.364-0.359,2.714-0.539,4.055-0.539
		c1.913,0,3.635,0.276,5.166,0.826c1.531,0.551,2.487,1.447,2.871,2.691c0.957,2.536,1.984,5.49,3.086,8.863
		c1.1,3.373,2.224,6.877,3.373,10.512c1.148,3.637,2.236,7.176,3.265,10.621c1.028,3.444,1.948,6.555,2.762,9.329
		c-0.478,0.574-1.196,1.04-2.153,1.399c-0.958,0.359-2.058,0.538-3.301,0.538c-1.865,0-3.182-0.323-3.946-0.969
		c-0.766-0.646-1.34-1.662-1.722-3.05l-2.584-8.54l-1.076-5.597c-0.67-2.2-1.34-4.378-2.009-6.53
		c-0.671-2.153-1.292-4.173-1.866-6.063C237.423,69.074,236.921,67.436,236.491,66.048z M224.434,91.163l3.876-8.037h17.223
		l1.363,8.037H224.434z"/>
	<path style="fill:#D21736;" d="M279.618,86.14H263.4V61.311c0-0.908,0.262-1.614,0.79-2.116c0.526-0.503,1.219-0.921,2.081-1.256
		c1.53-0.526,3.347-0.908,5.453-1.148c2.105-0.239,4.306-0.359,6.602-0.359c6.362,0,11.158,1.34,14.388,4.018
		c3.229,2.68,4.843,6.315,4.843,10.908c0,2.919-0.766,5.49-2.296,7.714c-1.531,2.225-3.636,3.959-6.315,5.202
		C286.266,85.519,283.158,86.14,279.618,86.14z M263.4,82.408h10.333v18.586c-0.478,0.095-1.16,0.215-2.045,0.358
		c-0.886,0.144-1.806,0.215-2.763,0.215c-2.009,0-3.433-0.371-4.27-1.112c-0.837-0.742-1.255-1.974-1.255-3.696V82.408z
		 M273.59,78.247h5.167c2.535,0,4.568-0.574,6.1-1.723c1.53-1.148,2.296-2.822,2.296-5.022c0-2.248-0.742-3.934-2.225-5.059
		c-1.483-1.123-3.732-1.686-6.745-1.686c-0.861,0-1.675,0.035-2.44,0.108c-0.765,0.071-1.483,0.179-2.153,0.323V78.247z
		 M277.896,83.701l8.969-2.225c1.149,1.483,2.333,2.99,3.553,4.52c1.219,1.532,2.379,3.014,3.48,4.45
		c1.1,1.435,2.105,2.751,3.014,3.946c0.908,1.197,1.602,2.201,2.081,3.014c-0.383,1.339-1.102,2.392-2.153,3.157
		c-1.053,0.764-2.201,1.148-3.445,1.148c-1.627,0-2.895-0.371-3.803-1.112c-0.909-0.741-1.746-1.733-2.512-2.978L277.896,83.701z"/>
	<path style="fill:#D21736;" d="M322.815,86.14h-16.217V61.311c0-0.908,0.262-1.614,0.79-2.116c0.526-0.503,1.219-0.921,2.081-1.256
		c1.53-0.526,3.347-0.908,5.453-1.148c2.105-0.239,4.306-0.359,6.602-0.359c6.36,0,11.158,1.34,14.387,4.018
		c3.229,2.68,4.843,6.315,4.843,10.908c0,2.919-0.765,5.49-2.296,7.714c-1.532,2.225-3.638,3.959-6.315,5.202
		C329.464,85.519,326.355,86.14,322.815,86.14z M306.598,82.408h10.333v18.586c-0.478,0.095-1.16,0.215-2.045,0.358
		c-0.886,0.144-1.806,0.215-2.763,0.215c-2.009,0-3.433-0.371-4.27-1.112c-0.837-0.742-1.255-1.974-1.255-3.696V82.408z
		 M316.788,78.247h5.167c2.535,0,4.568-0.574,6.098-1.723c1.53-1.148,2.297-2.822,2.297-5.022c0-2.248-0.743-3.934-2.225-5.059
		c-1.483-1.123-3.731-1.686-6.745-1.686c-0.861,0-1.675,0.035-2.44,0.108c-0.765,0.071-1.483,0.179-2.153,0.323V78.247z
		 M321.094,83.701l8.969-2.225c1.149,1.483,2.333,2.99,3.552,4.52c1.221,1.532,2.38,3.014,3.481,4.45
		c1.1,1.435,2.104,2.751,3.014,3.946c0.908,1.197,1.603,2.201,2.08,3.014c-0.383,1.339-1.1,2.392-2.153,3.157
		c-1.053,0.764-2.2,1.148-3.444,1.148c-1.626,0-2.894-0.371-3.802-1.112c-0.91-0.741-1.747-1.733-2.512-2.978L321.094,83.701z"/>
	<path style="fill:#D21736;" d="M368.455,86.858h-9.186c-1.244-1.866-2.608-3.947-4.09-6.243c-1.483-2.296-2.943-4.652-4.378-7.068
		c-1.436-2.415-2.788-4.76-4.055-7.033c-1.268-2.271-2.309-4.341-3.121-6.207c0.478-0.764,1.171-1.471,2.08-2.116
		c0.908-0.646,2.01-0.969,3.301-0.969c1.579,0,2.834,0.336,3.767,1.005c0.933,0.67,1.83,1.865,2.691,3.588
		c0.239,0.383,0.634,1.088,1.184,2.116c0.55,1.029,1.172,2.213,1.867,3.553c0.693,1.339,1.399,2.679,2.117,4.018
		c0.716,1.339,1.339,2.512,1.865,3.516c0.526,1.005,0.885,1.675,1.076,2.01h0.431c1.149-2.296,2.19-4.414,3.121-6.351
		c0.933-1.937,1.841-3.911,2.728-5.92c0.885-2.01,1.853-4.162,2.906-6.459c0.669-0.334,1.423-0.598,2.26-0.79
		c0.836-0.191,1.614-0.287,2.333-0.287c1.435,0,2.618,0.371,3.552,1.112c0.933,0.742,1.399,1.83,1.399,3.265
		c0,0.526-0.24,1.376-0.718,2.547c-0.478,1.173-1.255,2.751-2.331,4.737c-1.078,1.985-2.501,4.449-4.27,7.391
		C373.214,79.215,371.038,82.744,368.455,86.858z M358.766,83.054h10.047v17.941c-0.431,0.095-1.088,0.215-1.973,0.358
		c-0.886,0.144-1.759,0.215-2.62,0.215c-2.01,0-3.421-0.358-4.233-1.076c-0.814-0.717-1.221-1.937-1.221-3.659V83.054z"/>
</g>
<g>
	<path d="M429.179,92.383c-0.526,0.383-1.209,0.718-2.045,1.005c-0.838,0.287-1.783,0.431-2.835,0.431
		c-1.387,0-2.56-0.179-3.515-0.538c-0.959-0.359-1.579-0.969-1.867-1.83c-1.771-4.64-3.254-8.575-4.448-11.805
		c-1.197-3.229-2.153-5.967-2.871-8.216h-0.36c-0.143,3.062-0.262,5.884-0.358,8.467c-0.096,2.583-0.18,5.084-0.251,7.499
		c-0.072,2.417-0.168,4.892-0.288,7.427c-0.119,2.536-0.251,5.286-0.395,8.252c-0.526,0.192-1.196,0.359-2.008,0.502
		c-0.814,0.144-1.651,0.215-2.513,0.215c-1.722,0-3.049-0.299-3.982-0.896c-0.933-0.598-1.399-1.59-1.399-2.978
		c0-1.005,0.059-2.548,0.18-4.628c0.118-2.081,0.262-4.497,0.431-7.248c0.167-2.75,0.346-5.656,0.538-8.719
		c0.19-3.061,0.394-6.087,0.609-9.077c0.215-2.989,0.395-5.752,0.538-8.288c0.383-0.478,1.123-1.005,2.225-1.579
		c1.1-0.573,2.583-0.861,4.45-0.861c2.055,0,3.695,0.336,4.916,1.005c1.219,0.67,2.092,1.722,2.618,3.157
		c0.812,1.866,1.65,3.971,2.513,6.315c0.861,2.344,1.722,4.712,2.583,7.104c0.861,2.392,1.65,4.568,2.368,6.53h0.358
		c1.436-4.353,2.894-8.587,4.378-12.702c1.482-4.114,2.775-7.534,3.875-10.261c0.622-0.335,1.423-0.61,2.405-0.826
		c0.979-0.215,2.02-0.323,3.121-0.323c1.912,0,3.468,0.288,4.663,0.861c1.196,0.574,1.914,1.412,2.154,2.512
		c0.19,0.91,0.394,2.344,0.609,4.306c0.215,1.962,0.442,4.234,0.683,6.817c0.239,2.583,0.478,5.287,0.716,8.108
		c0.239,2.824,0.454,5.561,0.646,8.217c0.192,2.655,0.37,5.059,0.538,7.212c0.168,2.153,0.276,3.851,0.323,5.095
		c-0.716,0.383-1.446,0.669-2.188,0.861c-0.742,0.191-1.663,0.287-2.763,0.287c-1.435,0-2.667-0.263-3.695-0.789
		c-1.029-0.526-1.591-1.555-1.687-3.086c-0.192-3.875-0.372-7.57-0.538-11.087c-0.168-3.516-0.299-6.745-0.395-9.688
		c-0.096-2.942-0.192-5.441-0.288-7.499h-0.358c-0.671,2.153-1.614,4.869-2.834,8.145C432.515,83.067,430.997,87.265,429.179,92.383
		z"/>
	<path d="M499.145,81.476c0,4.976-0.959,9.175-2.871,12.594c-1.914,3.421-4.534,6.004-7.857,7.75
		c-3.326,1.746-7.094,2.618-11.303,2.618c-4.211,0-7.99-0.873-11.338-2.618c-3.348-1.746-5.98-4.33-7.894-7.75
		c-1.914-3.42-2.871-7.618-2.871-12.594c0-4.975,0.98-9.16,2.943-12.557c1.961-3.396,4.616-5.979,7.965-7.75
		c3.348-1.769,7.08-2.655,11.195-2.655c4.113,0,7.845,0.886,11.195,2.655c3.347,1.771,5.992,4.354,7.929,7.75
		C498.176,72.315,499.145,76.501,499.145,81.476z M488.596,81.476c0-4.736-1.041-8.347-3.121-10.835
		c-2.08-2.487-4.869-3.732-8.36-3.732c-3.444,0-6.219,1.233-8.325,3.696c-2.105,2.465-3.157,6.089-3.157,10.872
		c0,4.833,1.039,8.48,3.121,10.944c2.08,2.465,4.867,3.696,8.36,3.696c3.491,0,6.28-1.231,8.36-3.696
		C487.555,89.956,488.596,86.309,488.596,81.476z"/>
	<path d="M520.315,96.044c2.63,0,4.544-0.49,5.74-1.472c1.196-0.98,1.794-2.189,1.794-3.624c0-1.292-0.466-2.343-1.399-3.157
		c-0.933-0.812-2.333-1.507-4.198-2.08l-4.092-1.292c-2.536-0.812-4.748-1.746-6.638-2.798c-1.89-1.052-3.372-2.391-4.448-4.018
		c-1.076-1.625-1.614-3.683-1.614-6.171c0-3.971,1.495-7.115,4.485-9.437c2.988-2.319,7.092-3.48,12.307-3.48
		c2.726,0,5.141,0.276,7.247,0.826c2.106,0.551,3.769,1.328,4.988,2.332c1.219,1.005,1.83,2.225,1.83,3.66
		c0,0.958-0.24,1.83-0.718,2.619c-0.478,0.789-1.076,1.424-1.793,1.901c-1.102-0.764-2.583-1.435-4.45-2.009
		c-1.865-0.574-3.9-0.861-6.1-0.861c-2.344,0-4.125,0.407-5.346,1.219c-1.219,0.814-1.83,1.891-1.83,3.23
		c0,1.004,0.405,1.842,1.219,2.512c0.814,0.67,2.057,1.268,3.732,1.794l4.019,1.22c4.305,1.292,7.618,3.026,9.939,5.202
		c2.319,2.178,3.479,5.131,3.479,8.863c0,3.971-1.542,7.2-4.628,9.688c-3.086,2.488-7.499,3.731-13.24,3.731
		c-2.918,0-5.524-0.311-7.822-0.933c-2.296-0.621-4.102-1.507-5.417-2.655c-1.317-1.148-1.974-2.486-1.974-4.018
		c0-1.148,0.346-2.14,1.041-2.977c0.693-0.837,1.472-1.472,2.333-1.902c1.292,1.053,2.916,1.998,4.879,2.835
		C515.601,95.625,517.826,96.044,520.315,96.044z"/>
	<path d="M556.551,86.068h-10.333V59.733c0.478-0.095,1.172-0.226,2.08-0.394c0.908-0.167,1.818-0.251,2.728-0.251
		c1.912,0,3.311,0.347,4.198,1.041c0.885,0.694,1.327,1.973,1.327,3.839V86.068z M546.218,73.511h10.333v29.709
		c-0.478,0.095-1.16,0.215-2.045,0.358c-0.885,0.144-1.806,0.215-2.761,0.215c-2.01,0-3.434-0.371-4.27-1.112
		c-0.838-0.742-1.256-1.974-1.256-3.696V73.511z M579.084,85.494h-28.13v-8.18h28.13V85.494z M583.534,86.068H573.2V59.733
		c0.478-0.095,1.172-0.226,2.08-0.394c0.908-0.167,1.818-0.251,2.728-0.251c1.912,0,3.311,0.359,4.198,1.076
		c0.885,0.718,1.329,2.01,1.329,3.876V86.068z M573.2,73.511h10.334v29.709c-0.479,0.095-1.162,0.215-2.047,0.358
		c-0.885,0.144-1.806,0.215-2.761,0.215c-1.963,0-3.374-0.371-4.235-1.112c-0.861-0.742-1.292-1.974-1.292-3.696V73.511z"/>
</g>
<text transform="matrix(1 0 0 1 -870.8303 -110.649)" style="font-family:'FONTSPRINGDEMO-MentalBlack'; font-size:36px;">LARRY MOSH</text>
</svg>
