<?xml version="1.0" encoding="iso-8859-1"?>
<!-- Generator: Adobe Illustrator 24.3.0, SVG Export Plug-In . SVG Version: 6.00 Build 0)  -->
<svg version="1.1" id="Layer_1" xmlns="http://www.w3.org/2000/svg" xmlns:xlink="http://www.w3.org/1999/xlink" x="0px" y="0px"
	 viewBox="0 0 594 167.738" style="enable-background:new 0 0 594 167.738;" xml:space="preserve">
<path style="fill:#D21736;" d="M122.915,98.426l1.364-1.345c1.163-1.164,1.19-3.058,0.053-4.249L112.34,80.341
	c-1.15-1.191-3.035-1.218-4.225-0.054L95.773,92.439c-1.177,1.15-1.203,3.058-0.053,4.249l1.604,1.664
	c1.177,1.232,1.15,3.207-0.067,4.398l-0.734,0.722c-1.192,1.173-3.089,1.172-4.28-0.001l-1.764-1.737
	c-1.177-1.15-3.062-1.123-4.198,0.068l-1.618,1.664c-1.177,1.231-3.115,1.259-4.332,0.068l-1.176-1.158
	c-1.238-1.219-1.239-3.232-0.002-4.453l1.392-1.372c1.177-1.15,1.203-3.072,0.054-4.263L68.605,79.8
	c-1.136-1.177-3.022-1.204-4.198-0.054L52.052,91.912c-1.177,1.15-1.203,3.058-0.053,4.249l1.604,1.665
	c1.177,1.231,7.621,7.93,8.798,9.148l1.604,1.678c1.139,1.191,3.016,1.219,4.189,0.063l1.915-1.887
	c1.194-1.176,3.096-1.174,4.287,0.004l1.415,1.4c1.217,1.191,1.243,3.167,0.067,4.398l-1.604,1.664
	c-1.15,1.191-1.123,3.099,0.054,4.249l12.354,12.166c1.177,1.15,3.048,1.123,4.198-0.068l11.993-12.477
	c1.15-1.191,1.123-3.113-0.053-4.276l-1.531-1.506c-1.241-1.221-1.24-3.238,0.001-4.458l0.487-0.478
	c1.217-1.191,3.155-1.164,4.332,0.068l1.618,1.664c1.136,1.191,3.022,1.218,4.198,0.054 M72.656,96.445l-4.345,4.29
	c-1.177,1.15-3.075,1.137-4.212-0.054l-4.225-4.398c-1.15-1.204-1.11-3.099,0.067-4.263l4.345-4.29
	c1.177-1.15,3.048-1.123,4.198,0.068l4.238,4.398C73.859,93.387,73.846,95.281,72.656,96.445z M94.998,118.26l-4.238,4.398
	c-1.15,1.191-3.022,1.218-4.198,0.054l-4.345-4.276c-1.19-1.164-1.217-3.072-0.067-4.263l4.225-4.398
	c1.137-1.191,3.035-1.218,4.212-0.054l1.284,1.272l0.107,0.095l2.955,2.923c0.027,0.027,0.053,0.054,0.08,0.081
	C96.108,115.242,96.108,117.096,94.998,118.26z M112.032,101.263c-1.177,1.164-3.062,1.137-4.212-0.054l-4.225-4.398
	c-1.15-1.191-1.123-3.099,0.067-4.263l4.345-4.29c1.177-1.15,3.062-1.123,4.198,0.068l4.239,4.398
	c1.136,1.191,1.11,3.085-0.067,4.249L112.032,101.263z"/>
<path d="M102.873,54.074l-4.237-4.191l4.237,4.424l0.115-0.116C102.95,54.151,102.911,54.113,102.873,54.074z"/>
<g>
	<path style="fill:#D21736;" d="M173.414,82.089h-10.333V55.753c0.478-0.095,1.171-0.226,2.081-0.394
		c0.908-0.167,1.817-0.251,2.727-0.251c1.913,0,3.312,0.347,4.198,1.041c0.885,0.694,1.328,1.973,1.328,3.839V82.089z
		 M163.081,69.746h10.333v29.063l-4.88,0.646c-1.627,0-2.942-0.503-3.947-1.507c-1.005-1.005-1.507-2.32-1.507-3.947V69.746z
		 M168.535,99.455v-8.396h22.676c0.335,0.431,0.621,1.005,0.862,1.722c0.239,0.717,0.358,1.483,0.358,2.296
		c0,1.435-0.335,2.523-1.005,3.265c-0.67,0.742-1.555,1.112-2.655,1.112H168.535z"/>
	<path style="fill:#D21736;" d="M217.545,64.293h-0.431c-0.527,1.578-1.125,3.361-1.794,5.346c-0.67,1.985-1.376,4.054-2.116,6.207
		c-0.742,2.153-1.424,4.258-2.046,6.315l-1.219,5.741c-0.288,0.909-0.574,1.89-0.862,2.942c-0.287,1.053-0.586,2.081-0.896,3.085
		c-0.312,1.005-0.599,1.974-0.861,2.907c-0.264,0.933-0.491,1.758-0.682,2.476c-0.527,0.191-1.102,0.359-1.722,0.502
		c-0.622,0.144-1.388,0.215-2.296,0.215c-1.819,0-3.23-0.347-4.234-1.04c-1.005-0.693-1.507-1.687-1.507-2.978
		c0-0.573,0.095-1.159,0.287-1.758c0.191-0.597,0.383-1.279,0.574-2.045c0.478-1.578,1.112-3.563,1.901-5.956
		c0.79-2.391,1.662-4.987,2.619-7.786c0.957-2.799,1.926-5.573,2.906-8.325c0.98-2.75,1.902-5.298,2.763-7.643
		c0.861-2.343,1.578-4.234,2.153-5.669c0.669-0.382,1.687-0.753,3.05-1.112c1.364-0.359,2.714-0.539,4.055-0.539
		c1.913,0,3.635,0.276,5.166,0.826c1.531,0.551,2.487,1.447,2.871,2.691c0.957,2.536,1.984,5.49,3.086,8.863
		c1.1,3.373,2.224,6.877,3.373,10.512c1.148,3.637,2.236,7.176,3.265,10.621c1.028,3.444,1.948,6.555,2.762,9.329
		c-0.478,0.574-1.196,1.04-2.153,1.399c-0.958,0.359-2.058,0.538-3.301,0.538c-1.865,0-3.182-0.323-3.946-0.969
		c-0.766-0.646-1.34-1.662-1.722-3.05l-2.584-8.54l-1.076-5.597c-0.67-2.2-1.339-4.378-2.009-6.53
		c-0.671-2.153-1.292-4.173-1.866-6.063C218.478,67.319,217.976,65.681,217.545,64.293z M205.489,89.408l3.876-8.037h17.223
		l1.363,8.037H205.489z"/>
	<path style="fill:#D21736;" d="M260.672,84.385h-16.218V59.556c0-0.908,0.262-1.614,0.79-2.116
		c0.526-0.503,1.219-0.921,2.081-1.256c1.53-0.526,3.347-0.908,5.453-1.148c2.105-0.239,4.306-0.359,6.602-0.359
		c6.362,0,11.158,1.34,14.388,4.018c3.229,2.68,4.843,6.315,4.843,10.908c0,2.919-0.766,5.49-2.296,7.714
		c-1.531,2.225-3.636,3.959-6.315,5.202C267.321,83.764,264.212,84.385,260.672,84.385z M244.454,80.653h10.333V99.24
		c-0.478,0.095-1.16,0.215-2.045,0.358c-0.886,0.144-1.806,0.215-2.763,0.215c-2.009,0-3.433-0.371-4.27-1.112
		c-0.838-0.742-1.255-1.974-1.255-3.696V80.653z M254.644,76.492h5.167c2.535,0,4.568-0.574,6.1-1.723
		c1.53-1.148,2.296-2.822,2.296-5.022c0-2.248-0.742-3.934-2.225-5.059c-1.483-1.123-3.732-1.686-6.745-1.686
		c-0.861,0-1.675,0.035-2.44,0.108c-0.765,0.071-1.483,0.179-2.153,0.323V76.492z M258.95,81.946l8.969-2.225
		c1.149,1.483,2.333,2.99,3.553,4.52c1.219,1.532,2.379,3.014,3.48,4.45c1.1,1.435,2.105,2.751,3.014,3.946
		c0.908,1.197,1.602,2.201,2.081,3.014c-0.383,1.34-1.102,2.392-2.153,3.157c-1.053,0.764-2.201,1.148-3.445,1.148
		c-1.627,0-2.895-0.371-3.803-1.112c-0.909-0.741-1.746-1.733-2.512-2.977L258.95,81.946z"/>
	<path style="fill:#D21736;" d="M303.87,84.385h-16.217V59.556c0-0.908,0.262-1.614,0.79-2.116c0.526-0.503,1.219-0.921,2.081-1.256
		c1.53-0.526,3.347-0.908,5.453-1.148c2.105-0.239,4.306-0.359,6.602-0.359c6.36,0,11.158,1.34,14.387,4.018
		c3.229,2.68,4.843,6.315,4.843,10.908c0,2.919-0.765,5.49-2.296,7.714c-1.532,2.225-3.638,3.959-6.315,5.202
		C310.518,83.764,307.409,84.385,303.87,84.385z M287.653,80.653h10.333V99.24c-0.478,0.095-1.16,0.215-2.045,0.358
		c-0.886,0.144-1.806,0.215-2.763,0.215c-2.009,0-3.433-0.371-4.27-1.112c-0.837-0.742-1.255-1.974-1.255-3.696V80.653z
		 M297.842,76.492h5.167c2.535,0,4.568-0.574,6.098-1.723c1.53-1.148,2.297-2.822,2.297-5.022c0-2.248-0.743-3.934-2.225-5.059
		c-1.483-1.123-3.731-1.686-6.745-1.686c-0.861,0-1.675,0.035-2.44,0.108c-0.765,0.071-1.483,0.179-2.153,0.323V76.492z
		 M302.149,81.946l8.969-2.225c1.149,1.483,2.333,2.99,3.552,4.52c1.221,1.532,2.38,3.014,3.481,4.45
		c1.1,1.435,2.104,2.751,3.014,3.946c0.908,1.197,1.603,2.201,2.08,3.014c-0.383,1.34-1.1,2.392-2.153,3.157
		c-1.053,0.764-2.2,1.148-3.444,1.148c-1.626,0-2.894-0.371-3.802-1.112c-0.91-0.741-1.747-1.733-2.512-2.977L302.149,81.946z"/>
	<path style="fill:#D21736;" d="M349.509,85.103h-9.186c-1.244-1.866-2.608-3.947-4.09-6.243c-1.483-2.296-2.943-4.652-4.378-7.068
		c-1.436-2.415-2.788-4.76-4.055-7.033c-1.268-2.271-2.309-4.341-3.121-6.207c0.478-0.764,1.171-1.471,2.08-2.116
		c0.908-0.646,2.01-0.969,3.301-0.969c1.579,0,2.834,0.336,3.767,1.005c0.933,0.67,1.83,1.865,2.691,3.588
		c0.239,0.383,0.634,1.088,1.184,2.116c0.55,1.029,1.172,2.213,1.867,3.553c0.693,1.339,1.399,2.679,2.117,4.018
		c0.716,1.339,1.339,2.512,1.865,3.516c0.526,1.005,0.885,1.675,1.076,2.01h0.431c1.149-2.296,2.19-4.414,3.121-6.351
		c0.933-1.937,1.841-3.911,2.728-5.92c0.885-2.01,1.853-4.162,2.906-6.459c0.669-0.334,1.423-0.598,2.26-0.79
		c0.836-0.191,1.614-0.287,2.333-0.287c1.435,0,2.618,0.371,3.552,1.112c0.933,0.742,1.399,1.83,1.399,3.265
		c0,0.526-0.24,1.376-0.718,2.547c-0.478,1.173-1.255,2.751-2.331,4.737c-1.078,1.985-2.501,4.449-4.27,7.391
		C354.269,77.46,352.092,80.989,349.509,85.103z M339.821,81.299h10.047V99.24c-0.431,0.095-1.088,0.215-1.973,0.358
		c-0.886,0.144-1.759,0.215-2.62,0.215c-2.01,0-3.421-0.358-4.233-1.076c-0.814-0.717-1.221-1.937-1.221-3.659V81.299z"/>
</g>
<g>
	<path style="fill:#fff;" d="M410.233,90.628c-0.526,0.383-1.209,0.718-2.045,1.005c-0.837,0.287-1.783,0.431-2.835,0.431
		c-1.387,0-2.56-0.179-3.515-0.538c-0.959-0.359-1.579-0.969-1.867-1.83c-1.771-4.64-3.254-8.575-4.448-11.805
		c-1.197-3.229-2.153-5.967-2.871-8.216h-0.36c-0.143,3.062-0.262,5.884-0.358,8.467c-0.096,2.583-0.18,5.084-0.251,7.499
		c-0.072,2.417-0.168,4.892-0.288,7.427c-0.119,2.536-0.251,5.287-0.395,8.252c-0.526,0.192-1.196,0.359-2.008,0.502
		c-0.814,0.144-1.651,0.215-2.513,0.215c-1.722,0-3.049-0.299-3.982-0.896c-0.933-0.598-1.399-1.59-1.399-2.978
		c0-1.005,0.059-2.548,0.18-4.628c0.118-2.081,0.262-4.497,0.431-7.248c0.167-2.75,0.346-5.656,0.538-8.719
		c0.19-3.061,0.394-6.087,0.609-9.077c0.215-2.989,0.395-5.752,0.538-8.288c0.383-0.478,1.123-1.005,2.225-1.579
		c1.1-0.573,2.583-0.861,4.45-0.861c2.055,0,3.695,0.336,4.916,1.005c1.219,0.67,2.092,1.722,2.618,3.157
		c0.812,1.866,1.65,3.971,2.513,6.315c0.861,2.344,1.722,4.712,2.583,7.104c0.861,2.392,1.65,4.568,2.368,6.53h0.358
		c1.436-4.353,2.894-8.587,4.378-12.702c1.482-4.113,2.775-7.534,3.875-10.261c0.622-0.335,1.423-0.61,2.405-0.826
		c0.979-0.215,2.02-0.323,3.121-0.323c1.912,0,3.468,0.288,4.663,0.861c1.196,0.574,1.914,1.412,2.154,2.512
		c0.19,0.91,0.394,2.344,0.609,4.306c0.215,1.962,0.442,4.234,0.683,6.817c0.239,2.583,0.478,5.287,0.716,8.108
		c0.239,2.824,0.454,5.561,0.646,8.217c0.192,2.655,0.37,5.059,0.538,7.212c0.168,2.153,0.276,3.851,0.323,5.095
		c-0.716,0.383-1.446,0.669-2.188,0.861c-0.742,0.191-1.663,0.287-2.763,0.287c-1.435,0-2.667-0.263-3.695-0.789
		c-1.029-0.526-1.591-1.555-1.687-3.086c-0.192-3.875-0.372-7.57-0.538-11.087c-0.168-3.516-0.299-6.745-0.395-9.688
		c-0.096-2.942-0.192-5.441-0.288-7.499h-0.358c-0.671,2.153-1.614,4.869-2.834,8.145C413.57,81.312,412.051,85.51,410.233,90.628z"
		/>
	<path style="fill:#fff;" d="M480.2,79.721c0,4.976-0.959,9.175-2.871,12.594c-1.914,3.421-4.534,6.004-7.857,7.75
		c-3.326,1.746-7.094,2.618-11.303,2.618c-4.211,0-7.99-0.873-11.338-2.618c-3.348-1.746-5.98-4.33-7.894-7.75
		c-1.914-3.42-2.871-7.618-2.871-12.594c0-4.975,0.98-9.16,2.943-12.557c1.961-3.396,4.616-5.979,7.965-7.75
		c3.348-1.769,7.08-2.655,11.195-2.655c4.113,0,7.845,0.886,11.195,2.655c3.347,1.771,5.992,4.354,7.929,7.75
		C479.231,70.56,480.2,74.746,480.2,79.721z M469.65,79.721c0-4.736-1.041-8.347-3.121-10.835c-2.08-2.487-4.869-3.732-8.36-3.732
		c-3.444,0-6.219,1.233-8.325,3.696c-2.105,2.465-3.157,6.089-3.157,10.872c0,4.833,1.039,8.48,3.121,10.944
		c2.08,2.465,4.867,3.696,8.36,3.696c3.491,0,6.28-1.231,8.36-3.696C468.609,88.201,469.65,84.554,469.65,79.721z"/>
	<path style="fill:#fff;" d="M501.369,94.289c2.63,0,4.544-0.49,5.74-1.472c1.196-0.98,1.794-2.189,1.794-3.624
		c0-1.292-0.466-2.343-1.399-3.157c-0.933-0.812-2.333-1.507-4.198-2.08l-4.092-1.292c-2.536-0.812-4.747-1.746-6.638-2.798
		c-1.89-1.052-3.372-2.391-4.448-4.018c-1.076-1.625-1.614-3.683-1.614-6.171c0-3.971,1.495-7.115,4.485-9.437
		c2.988-2.319,7.092-3.48,12.307-3.48c2.726,0,5.141,0.276,7.247,0.826c2.105,0.551,3.769,1.328,4.988,2.332
		c1.219,1.005,1.83,2.225,1.83,3.66c0,0.958-0.24,1.83-0.718,2.619c-0.478,0.789-1.076,1.424-1.793,1.901
		c-1.102-0.764-2.583-1.435-4.45-2.009c-1.865-0.574-3.9-0.861-6.1-0.861c-2.344,0-4.125,0.407-5.346,1.219
		c-1.219,0.814-1.83,1.891-1.83,3.23c0,1.004,0.405,1.842,1.219,2.512c0.814,0.67,2.057,1.268,3.732,1.794l4.019,1.22
		c4.305,1.292,7.618,3.026,9.939,5.202c2.319,2.178,3.479,5.131,3.479,8.863c0,3.971-1.542,7.2-4.628,9.688
		c-3.086,2.488-7.499,3.731-13.24,3.731c-2.918,0-5.524-0.311-7.822-0.933c-2.296-0.621-4.102-1.507-5.417-2.655
		c-1.317-1.148-1.974-2.486-1.974-4.018c0-1.148,0.346-2.14,1.041-2.978c0.693-0.837,1.472-1.472,2.333-1.902
		c1.292,1.053,2.916,1.998,4.879,2.835C496.655,93.87,498.88,94.289,501.369,94.289z"/>
	<path style="fill:#fff;" d="M537.605,84.314h-10.333V57.978c0.478-0.095,1.172-0.226,2.08-0.394
		c0.908-0.167,1.818-0.251,2.728-0.251c1.912,0,3.311,0.347,4.198,1.041c0.885,0.694,1.327,1.973,1.327,3.839V84.314z
		 M527.273,71.756h10.333v29.709c-0.478,0.095-1.16,0.215-2.045,0.358c-0.885,0.144-1.806,0.215-2.761,0.215
		c-2.01,0-3.434-0.371-4.27-1.112c-0.838-0.742-1.256-1.974-1.256-3.696V71.756z M560.139,83.739h-28.13v-8.18h28.13V83.739z
		 M564.589,84.314h-10.334V57.978c0.478-0.095,1.172-0.226,2.08-0.394c0.908-0.167,1.818-0.251,2.728-0.251
		c1.912,0,3.311,0.359,4.198,1.076c0.885,0.718,1.329,2.01,1.329,3.876V84.314z M554.254,71.756h10.334v29.709
		c-0.479,0.095-1.162,0.215-2.047,0.358c-0.885,0.144-1.806,0.215-2.761,0.215c-1.963,0-3.374-0.371-4.235-1.112
		c-0.861-0.742-1.292-1.974-1.292-3.696V71.756z"/>
</g>
<path style="fill:#fff;" d="M146.429,71.202L134.088,59.05c-1.177-1.164-3.049-1.137-4.198,0.054l-1.604,1.678
	c-1.19,1.218-3.129,1.245-4.345,0.054l-0.654-0.643c-1.239-1.219-1.24-3.233-0.002-4.453l1.364-1.345
	c1.163-1.164,1.19-3.058,0.053-4.249l-11.993-12.491c-1.15-1.191-3.035-1.218-4.225-0.054L96.142,49.753
	c-1.177,1.15-1.203,3.058-0.053,4.249l1.604,1.664c1.177,1.232,1.15,3.207-0.067,4.398l-0.734,0.722
	c-1.192,1.173-3.089,1.172-4.28-0.001l-1.764-1.737c-1.177-1.15-3.062-1.123-4.198,0.068l-1.618,1.665
	c-1.177,1.231-3.115,1.259-4.332,0.068l-1.176-1.158c-0.956-0.941-1.166-2.352-0.647-3.51l2.337-2.301
	c1.18-1.162,1.206-3.073,0.059-4.267L69.238,37.092c-0.735-0.765-1.772-1.045-2.734-0.847c-0.629,0.073-1.241,0.336-1.73,0.814
	L52.421,49.225c-1.177,1.15-1.203,3.058-0.053,4.249l1.604,1.665c0.36,0.377,1.215,1.267,2.259,2.354l-5.577,5.49l-3.751-3.904
	c-1.148-1.194-3.036-1.221-4.216-0.059l-12.373,12.18c-1.18,1.162-1.206,3.073-0.059,4.267l12.034,12.523
	c1.148,1.194,3.036,1.221,4.216,0.059l12.373-12.18c1.18-1.162,1.206-3.073,0.059-4.267l-3.751-3.904l5.579-5.492
	c0.925,0.961,1.675,1.74,2.005,2.081l1.604,1.678c0.481,0.503,1.095,0.786,1.731,0.872c0.95,0.217,1.986-0.037,2.736-0.776
	l2.599-2.558c1.104-0.465,2.42-0.254,3.326,0.643l1.415,1.4c1.217,1.191,1.243,3.167,0.067,4.398l-1.604,1.664
	c-1.15,1.191-1.123,3.099,0.054,4.249L87.05,88.023c1.177,1.15,3.048,1.123,4.198-0.068l11.993-12.477
	c1.15-1.191,1.123-3.113-0.053-4.276l-1.531-1.506c-1.241-1.221-1.24-3.238,0.001-4.458l0.487-0.478
	c1.217-1.191,3.155-1.164,4.332,0.068l1.618,1.665c1.136,1.191,3.022,1.218,4.198,0.054l1.941-1.913
	c1.19-1.173,3.086-1.175,4.279-0.005l0.913,0.896c1.217,1.194,1.245,3.177,0.061,4.405l-1.604,1.665
	c-1.137,1.191-1.11,3.099,0.053,4.249l12.354,12.166c1.177,1.15,3.062,1.123,4.198-0.054l12.007-12.491
	C147.646,74.274,147.619,72.352,146.429,71.202z M50.973,75.757l-4.364,4.295c-1.18,1.162-3.068,1.135-4.216-0.059l-4.239-4.411
	c-1.148-1.194-1.121-3.106,0.059-4.267l4.364-4.295c1.13-1.112,2.904-1.137,4.064-0.087l0.043,0.045
	c0.038,0.028,0.076,0.068,0.108,0.102l4.239,4.411c0.038,0.039,0.076,0.079,0.103,0.118l0.038,0.039
	C52.177,72.851,52.103,74.645,50.973,75.757z M68.853,45.111l4.238,4.398c1.136,1.191,1.123,3.085-0.067,4.249l-4.345,4.29
	c-0.576,0.564-1.326,0.844-2.075,0.847c-0.687-0.061-1.357-0.349-1.875-0.889l-4.239-4.411c-1.148-1.194-1.121-3.106,0.059-4.267
	l4.364-4.295c0.524-0.515,1.188-0.783,1.864-0.833C67.531,44.215,68.281,44.519,68.853,45.111z M95.367,75.573l-4.238,4.398
	c-1.15,1.191-3.022,1.218-4.198,0.054l-4.345-4.276c-1.19-1.164-1.217-3.072-0.067-4.263l4.225-4.398
	c1.137-1.191,3.035-1.218,4.212-0.054l1.284,1.272l0.107,0.095l2.955,2.923c0.027,0.027,0.053,0.054,0.08,0.081
	C96.477,72.555,96.477,74.409,95.367,75.573z M116.746,54.286l-4.345,4.29c-1.177,1.164-3.062,1.137-4.212-0.054l-4.225-4.398
	c-1.15-1.191-1.123-3.099,0.067-4.263l4.345-4.29c1.177-1.15,3.062-1.123,4.198,0.068l4.239,4.398
	C117.95,51.228,117.923,53.122,116.746,54.286z M138.607,75.559l-4.238,4.398c-1.137,1.191-3.008,1.218-4.185,0.068l-4.359-4.29
	c-1.177-1.164-1.217-3.058-0.067-4.263l4.238-4.398c1.136-1.191,3.022-1.204,4.198-0.054l4.359,4.29
	C139.73,72.474,139.744,74.369,138.607,75.559z"/>
</svg>
